<?xml version="1.0" encoding="utf-8"?>
<!-- Generator: Adobe Illustrator 23.0.1, SVG Export Plug-In . SVG Version: 6.00 Build 0)  -->
<svg version="1.1" id="Camada_1" xmlns="http://www.w3.org/2000/svg" xmlns:xlink="http://www.w3.org/1999/xlink" x="0px" y="0px"
	 viewBox="0 0 368.2 427.6" style="enable-background:new 0 0 368.2 427.6;" xml:space="preserve">
<style type="text/css">
	.st0{fill:#167589;}
	.st1{fill:#D6A193;}
	.st2{fill:#023248;}
	.st3{fill:#003346;}
	.st4{fill:#16758B;}
</style>
<title>ortho_1</title>
<g>
	<g id="Camada_1-2">
		<path class="st0" d="M183.3,160.1c12.2,0.2,24.3,0.4,36.5-0.2c29.8-1.4,56-19.9,62.6-50.1c6.6-30.4-9.8-56.1-34.4-72.2
			c23.8-3.3,49,9.8,59.8,31.3c5.6,11.2,7.5,24,6.4,36.4c-2,20-10.3,38.9-23.8,53.8c-13.3,14.7-30.8,25-50.1,29.4
			c-26.2,5.9-54.9,2.3-81.6,2.2h-3.7c-1.4,0.1-2.8-0.1-4-0.7c-1.4-1-0.9-2.9-0.9-4.5v-12.3c0-8.1,0-16.2,0-24.3
			c0-35.2,0-70.4,0-105.6c0-12.9,0.1-25.8,0-38.7c-0.1-0.8,0.1-1.5,0.4-2.2c0.7-1,2-1,3.2-1h22.2c0.9-0.1,1.7,0.1,2.5,0.4
			c1.4,0.7,2,2.5,2,4.1c0.6,25.7-0.1,51.6-0.1,77.3c0,24.7,1.1,49.7-0.1,74.4c-0.1,0.6,0,1.2,0.3,1.7c0.6,0.6,1.4,0.9,2.3,0.8
			L183.3,160.1z"/>
		<path class="st1" d="M189.3,154.4c-0.2,0-0.4-0.1-0.6-0.2c-2.2-0.9-1.7-3.1-1.7-5c0-48.1,0-96.2,0-144.4c-0.1-0.9,0.1-1.8,0.6-2.5
			c0.7-0.6,1.7-0.9,2.6-0.8c13.4-0.4,26.8,0,40.2-0.5c14.1-0.6,28.4-1,42.3,1.6C300.6,8.1,325.4,26,338.6,51
			c29.7,56.3-1,121-58.7,136.4c-6.7,1.9-13.7,2.9-20.7,2.7c0.7-2.1,2.7-2.3,4.3-3.1c35.9-17.8,61.8-58.2,55.8-102.1
			C316,60.7,292.9,36.1,268,32.3c-15.9-2.5-31.9-0.6-47.8-1.2c-2-0.1-3.7,0.5-3.5,3.1c-0.1,1.8-0.2,3.7-0.2,5.5
			c0,32.3,0,64.6,0,96.9c0,5.5-0.2,11-0.4,16.5c0,2-22.1,1.6-24,1.6C191.2,154.7,190.2,154.6,189.3,154.4z"/>
		<path class="st2" d="M150,3.5c0.3,0.5,0.4,1,0.3,1.5c0,12.8,0,25.6-0.1,38.4c-11.2-4.8-22.7-7.1-34.9-5
			c-34.2,6.1-56.8,44.4-44.7,76.8c7.7,20.5,22.3,34,44.2,38.4c12.2,2.5,24.1,0.4,35.5-4.7c0,13.4,0,26.8,0,40.2
			c-9,1.7-17.9,3.2-27.1,3c-14.4-0.2-28.6-3.6-41.4-10C71.4,177,62.2,170,54.3,161.6C36.2,142.2,28.5,119,29,92.5
			c0.8-41.6,30.6-78.9,72.6-89.6c15.5-3.8,31.7-3.8,47.2,0C149.2,3,149.7,3.2,150,3.5z"/>
		<path class="st3" d="M285,250.2c-0.3-22.8,18-41.5,40.8-41.8c0.1,0,0.3,0,0.4,0c23,0,41.7,18.6,41.7,41.6
			c0,23-18.6,41.7-41.6,41.7l0,0C303.3,291.7,285.1,273.4,285,250.2z M326.7,219.9c-13.4-1.1-30.8,12.4-30.4,30.4
			c0.4,16.5,13.3,29.8,29.7,29.9c16.8,0.2,30.5-13.2,30.8-30C357.1,232.1,339.5,219.3,326.7,219.9L326.7,219.9z"/>
		<path class="st3" d="M0,250c-1-20.8,17-41.8,41.8-41.6c22.9,0.3,41.3,18.9,41.4,41.8c0,22.7-19,41.7-41.6,41.5
			C18,291.6-0.1,273.5,0,250z M71.5,250.1c0.7-17-15.9-30.4-30.4-30.4c-12.3,0.1-30.8,13-30,31c0.6,16.5,14.2,29.5,30.6,29.5
			c16.5,0,29.8-13.3,29.8-29.8C71.5,250.4,71.5,250.2,71.5,250.1L71.5,250.1z"/>
		<path class="st4" d="M308.5,328.5c0,17.1,0,34.2,0,51.4c0,3-0.4,5.7-3.6,6.9c-4.3,1.6-7.7-1.3-7.8-6.7c0-16.3,0-32.7,0-49
			c0-6.3,0-12.7,0-19c0-3.2,0.3-6.1,3.8-7.4s5.6,0.8,7.5,3.3c14.1,18.1,28.2,36.2,42.3,54.3c0.5,0.6,0.7,1.5,1.9,1.6
			c1.3-1.5,0.6-3.4,0.6-5.1c0.1-15.7,0-31.3,0-47c0-5,2.1-7.8,5.8-7.5c4.6,0.4,5.3,3.6,5.2,7.5c-0.1,22.7-0.1,45.3,0,68
			c0,2.7,0.1,5.5-3,6.7s-5.7,0-7.8-2.7c-12.8-16.4-25.6-32.7-38.5-49c-1.8-2.3-3.7-4.6-5.5-6.9L308.5,328.5z"/>
		<path class="st4" d="M57.9,371.8c-0.6,0.8-1.3,1.5-1.9,2.2c-12.3,13.2-28.4,13.3-45.2,13c-5.5-0.1-7.4-1.9-7.4-7.5
			c0-19,0-38,0-56.9c0-3.7-0.1-7.3,0-11c0.2-5.1,2.2-7.2,7.4-7.3c19.4-0.3,38.2,0.9,49.8,18.9C70.2,338.2,68.9,358.2,57.9,371.8z
			 M15,345.9L15,345.9c0,6.2,0,12.3,0,18.5c0.1,12.5,0.1,12.5,12.5,11.7c22.5-1.5,35.8-27.3,23.7-46c-7.4-11.4-18.4-15-31.5-14.1
			c-3.5,0.2-4.9,0.8-4.8,4.6C15.2,329,15,337.4,15,345.9z"/>
		<path class="st4" d="M289.2,362.4c0,0.3,0,0.7,0,1c0,15.2-3.4,19.4-18.4,22.9c-19.3,4.4-38.1-4.4-47-22.6
			c-9.8-20.7-1-45.5,19.8-55.3c13.7-6.5,30-5,42.2,4c3.4,2.4,5,5.4,2.6,8.8s-5.8,3-9.1,0.5c-13.2-10.1-35.6-7.5-45.1,11
			c-5.7,11-3.3,25.6,5.8,34.4c9.9,9.6,24.1,11.8,35.3,5.6c1.7-0.8,2.7-2.4,2.8-4.3c1-12.5,1-12.5-11.6-12.7c-1.2,0-2.3-0.1-3.5-0.3
			c-3.3-0.5-5-2.5-4.6-5.9s2.3-5.1,5.6-5.2c6.5-0.1,13-0.1,19.5,0c3.8,0.1,5.8,2.3,5.8,6.1C289.2,354.4,289.2,358.4,289.2,362.4z"/>
		<path class="st3" d="M90.4,250c0-11.1,0-22.3,0-33.5c0-6.3,1.8-8.2,7.9-8.1c7.1,0.1,14.3-0.6,21.4,0.5
			c11.6,1.7,18.4,8.8,21.1,19.7c2.5,10.2-0.6,19.2-9,25.7c-3.1,2.4-2.8,3.9-1,6.6c4.4,6.6,8.5,13.5,12.7,20.2
			c2.7,4.3,2.5,7.7-0.5,9.6c-3.3,2.1-6.4,0.8-9.3-3.7c-4.5-7.1-9.4-14.1-13.4-21.5c-2.3-4.2-4.9-5.7-9.7-5.5
			c-8.6,0.5-8.7,0.1-8.7,8.5c0,5.5,0,11,0,16.5c0,4-2,6.6-5.8,6.6s-5.8-2.8-5.8-6.6C90.4,273.3,90.4,261.7,90.4,250z M102.2,233.8
			l0.3,9.4c0.3,8.4,9.1,5.8,14.8,5.3c7.4-0.7,13-7,12.8-14.5c-0.2-7.4-6.6-14-14-14c-5.8,0-14.5-3-14.2,5.8L102.2,233.8z"/>
		<path class="st4" d="M121.1,344.2c0.2,0.8,0.2,1.6,0.1,2.4c-0.5,2.3-2.2,4.1-4.4,4.8c-3.6,1.2-9,0.2-12.8,0.3
			c-4.9,0-9.8,0.1-14.7,0c-7-0.1-3.6,19.2-3.5,24.3l38.7-0.1c2.3,0,4.7,0,6.5,1.4c3.2,2.2,2.5,8-1,9.5c-1.4,0.5-2.9,0.7-4.4,0.6
			c-14.3,0-28.5-0.1-42.8-0.1c-2.5,0-5,0.1-7.2-1.3l0,0c-1.1-1.8-1.6-3.9-1.4-6.1c0-4.3-0.1-8.5-0.2-12.8v-21.9
			c0.4-10.4,0.4-20.7,0-31.1c0.5-2.6-0.4-5.5,1.4-8l2.1-1.4c16-0.1,32-0.2,47.9-0.3c1.4-0.1,2.8,0.1,4.2,0.5
			c1.9,0.8,3.3,2.6,3.5,4.6c0.4,3.5-2.2,5-4.8,6.5l-42,0.3c-0.7-0.1-0.9,0.2-0.7,0.9c-0.1,6.6,0,13.3-0.2,19.9
			c-0.1,2.7,0.9,3.4,3.4,3.4c8.3-0.1,16.6,0,24.9-0.1C116.6,340.2,120.2,341.3,121.1,344.2z"/>
		<path class="st3" d="M218.6,249.8c0-11.2,0.1-22.3,0-33.5c0-4.2,1.1-7.4,5.6-7.8c3.8-0.4,6,2.6,6,8c0.1,8.2,0.1,16.3,0,24.5
			c-0.1,2.8,0.8,3.7,3.6,3.6c9.7-0.2,19.3-0.2,29,0c3.4,0.1,3.7-1.3,3.7-4.1c-0.1-8.5,0.1-17-0.1-25.5c-0.1-4.2,1.8-6.5,5.8-6.5
			s5.5,2.5,5.5,6.3c0,23.5,0,47,0,70.4c0,3.8-1.8,6.3-5.5,6.3c-3.9,0-5.8-2.4-5.7-6.6c0.2-8.3-0.1-16.7,0.1-25c0-2.8-0.3-4.1-3.7-4
			c-9.7,0.3-19.3,0.2-29,0c-2.8,0-3.7,0.7-3.6,3.6c0.2,8,0.1,16,0.1,24c0,5.4-2.2,8.4-6,8c-4.5-0.5-5.7-3.6-5.6-7.9
			C218.6,272.5,218.6,261.1,218.6,249.8z"/>
		<path class="st4" d="M162.5,387.1c-8.2,0.3-14.8-3.2-20.1-9.3c-2.5-2.9-4.4-6.4-0.6-9.6s6.6-1.1,9.2,2.1
			c4.6,5.6,10.6,7.1,16.9,4.5c5.7-2.4,9-8.4,8.3-15c-0.6-6.1-5-9.1-10.1-11.2c-5.5-2.2-11.4-3.4-16-7.7c-6.3-6.1-7.9-13.3-5.4-21.4
			c2.8-8.8,9.1-13.8,18.1-14.9c8.4-1,15.3,2.5,20.2,9.4c2,2.7,2.4,6.2-0.8,8.5s-6.2,0.9-8.6-2.1c-3.6-4.3-8-5.5-12.3-3.5
			s-6.4,5.5-6.1,10.4c0.3,4,2.7,6.3,6.2,7.6c4.9,1.9,10.1,3.2,14.6,6.2c10.5,7.1,14.3,17,10.8,28.9
			C184.2,379.5,173.4,387.1,162.5,387.1z"/>
		<path class="st3" d="M185.6,254.6c0,9.8,0,19.6,0,29.5c0,5-2.2,8-5.9,7.6c-4.6-0.4-5.8-3.5-5.7-7.7c0.1-19.7-0.1-39.3,0.2-59
			c0.1-4.3-1.3-5.4-5.3-5.1c-4.6,0.3-9.3,0.1-14,0.1c-3.9,0-6.6-1.7-6.6-5.8c0-3.9,2.7-5.7,6.2-5.7c16.8-0.1,33.6-0.1,50.5,0
			c3.7,0,6.6,1.4,6.4,5.9c-0.2,4.3-2.9,5.6-6.7,5.6c-5.2,0-10.3,0.1-15.5-0.1c-2.8-0.1-3.7,0.9-3.6,3.7
			C185.6,233.9,185.6,244.2,185.6,254.6z"/>
		<path class="st4" d="M198.6,345.6c0-11.1,0-22.3,0-33.4c0-5,2.2-8,5.7-7.7c4.8,0.3,5.9,3.7,5.9,7.7c0,22.5,0,44.9,0,67.4
			c0,4-0.9,7.6-5.9,7.5s-5.8-3.4-5.8-7.5C198.6,368.2,198.6,356.9,198.6,345.6z"/>
	</g>
</g>
</svg>
