<svg xmlns="http://www.w3.org/2000/svg" xmlns:xlink="http://www.w3.org/1999/xlink" viewBox="0 0 422.07 103.59"><defs><style>.cls-1{fill:url(#Gradiente_sem_nome_16);}.cls-2{fill:url(#Gradiente_sem_nome_16-2);}.cls-3{fill:gray;}</style><linearGradient id="Gradiente_sem_nome_16" x1="38.28" y1="91.86" x2="38.28" y2="8.43" gradientUnits="userSpaceOnUse"><stop offset="0" stop-color="#e9c79a"/><stop offset="1" stop-color="#e7bd88"/></linearGradient><linearGradient id="Gradiente_sem_nome_16-2" x1="76.56" y1="103.59" x2="76.56" y2="0" xlink:href="#Gradiente_sem_nome_16"/></defs><g id="Layer_2" data-name="Layer 2"><g id="Layer_1-2" data-name="Layer 1"><path class="cls-1" d="M76.56,30h-.89c-.52-.89-1.07-1.76-1.66-2.6a42.7,42.7,0,0,0-3.6-4.43,43.54,43.54,0,0,0-4.2-3.84,42.13,42.13,0,0,0-4.7-3.18,41.08,41.08,0,0,0-5.1-2.44L55.08,13c-.44-.16-.89-.29-1.34-.44l-.67-.21-.69-.18L51.7,12c-.22-.06-.45-.13-.68-.17l-1.38-.29L49,11.4l-.7-.11-.69-.11-.7-.07c-.47,0-.93-.11-1.4-.14l-1.4-.08-.35,0H42.66c-.94,0-1.88.05-2.81.08l-1.39.13-.7.07-.69.11-.69.1c-.23,0-.46.06-.69.11l-1.37.28c-.23,0-.45.1-.68.16l-.68.17-.67.17-.67.2c-.44.14-.89.26-1.33.41L29,13.33c-.22.07-.43.16-.65.25l-.64.27-.64.27-.63.3c-.41.2-.84.39-1.25.61L24,15.69a39.19,39.19,0,0,0-4.61,3.06,39.94,39.94,0,0,0-4.11,3.69,37.2,37.2,0,0,0-6.35,8.94l-.6,1.23c-.2.41-.36.84-.55,1.25l-.27.63-.23.65L7,35.78c-.08.21-.16.42-.23.64l-.41,1.3c-.13.44-.23.88-.35,1.32l-.17.66-.14.67L5.55,41c0,.22-.1.44-.13.66l-.21,1.35c0,.22-.06.45-.08.68l-.07.67L5,45.08c0,.22,0,.45,0,.68,0,.45-.05.9-.07,1.36,0,.9,0,1.81,0,2.71l0,.68v.34l0,.34.13,1.35c0,.45.13.89.19,1.34l.1.67.13.66.14.66c0,.22.08.45.14.66l.33,1.31c0,.22.12.43.19.65l.19.64.2.65c.07.21.15.42.23.63.16.42.3.85.46,1.27L8,62.92a38.32,38.32,0,0,0,2.51,4.74A39.57,39.57,0,0,0,13.64,72a40.76,40.76,0,0,0,3.76,3.79,38.76,38.76,0,0,0,4.27,3.18,36.23,36.23,0,0,0,4.67,2.52l1.21.52c.41.17.83.31,1.24.47l.62.22.63.2.63.2c.21.07.42.14.64.19l1.27.33c.43.11.86.18,1.29.28l.64.13.66.1c.43.06.86.15,1.3.2a36.55,36.55,0,0,0,4.05.26h1.2v7.29l-1.2,0a45.53,45.53,0,0,1-5.08-.52c-.52-.08-1-.2-1.55-.3l-.77-.15-.77-.19c-.51-.13-1-.24-1.52-.39l-1.51-.46c-.25-.07-.5-.16-.74-.25l-.74-.26L27.1,89l-.73-.3c-.48-.2-1-.39-1.45-.61l-1.41-.68a44.07,44.07,0,0,1-5.39-3.18,46,46,0,0,1-4.85-3.93,46.83,46.83,0,0,1-4.21-4.59,44.58,44.58,0,0,1-3.48-5.14A42.74,42.74,0,0,1,2.89,65l-.54-1.45c-.17-.48-.32-1-.48-1.47-.07-.24-.16-.49-.23-.74l-.2-.74-.19-.75c-.07-.25-.14-.5-.19-.75L.74,57.6c-.05-.25-.09-.51-.13-.76l-.12-.76-.12-.76-.09-.77C.23,54,.16,53.53.13,53L0,51.49l0-.39V50c0-1,0-2,.08-3.06,0-.51.09-1,.14-1.53,0-.26,0-.51.08-.76l.11-.76.11-.76c0-.25.07-.51.12-.76l.3-1.5c0-.25.11-.5.17-.75l.19-.74.18-.74.22-.73c.16-.49.29-1,.46-1.46L2.69,35c.08-.24.18-.47.27-.71l.3-.7.29-.71.33-.69c.22-.45.42-.92.66-1.37l.72-1.34a43.56,43.56,0,0,1,3.35-5.07,46.76,46.76,0,0,1,4-4.51A45.11,45.11,0,0,1,17.3,16a43.63,43.63,0,0,1,5.15-3.13l1.35-.66c.45-.22.92-.4,1.38-.6l.69-.3,1.4-.52c.24-.09.47-.18.71-.25l1.43-.46c.48-.14,1-.26,1.45-.39l.73-.19.73-.15.73-.16.74-.14,1.48-.23c.24-.05.49-.07.74-.1l.74-.08.74-.08.75,0,1.49-.08c1,0,2,0,3,0l.75,0,.37,0,.37,0,1.48.14c.49.05,1,.14,1.47.2l.74.11.73.15.73.14c.24,0,.49.09.72.16l1.44.36.72.2,1.42.44.7.24c.46.18.93.33,1.39.52l1.36.57a40.75,40.75,0,0,1,5.23,2.76A42.54,42.54,0,0,1,67.08,18a45.17,45.17,0,0,1,4.17,4.13,44.48,44.48,0,0,1,3.52,4.69C75.41,27.86,76,28.9,76.56,30Z"/><path class="cls-2" d="M105.85,50.27a53.44,53.44,0,0,1-1.06,10.93,53,53,0,0,1-8.71,20l-.8,1.12-.85,1.08c-.28.36-.56.72-.86,1.08l-.9,1-.45.52c-.15.18-.3.35-.46.51l-1,1c-.63.68-1.31,1.29-2,1.92a52.57,52.57,0,0,1-8.77,6.6,51.94,51.94,0,0,1-9.94,4.63,52.75,52.75,0,0,1-10.65,2.46c-.91.09-1.81.22-2.72.26s-1.82.13-2.73.12c-1.36,0-2.67,0-4,0v0H47.26v-50h2.79v47.22c1.31,0,2.62,0,3.88-.11.86,0,1.72-.12,2.58-.19s1.71-.21,2.56-.32a50.63,50.63,0,0,0,19.21-7,52,52,0,0,0,8.13-6.26c.61-.6,1.25-1.18,1.82-1.82l.88-.93c.15-.15.29-.32.43-.48l.41-.49.84-1c.28-.33.53-.67.8-1l.79-1,.74-1a51.22,51.22,0,0,0,5-8.93,49.79,49.79,0,0,0,3.13-9.76,51.13,51.13,0,0,0-2.88-30.26,51.85,51.85,0,0,0-11.6-17A51.45,51.45,0,0,0,69.35,2l-1.23-.45-.48-.18V0l.26.07.64.2,1.29.4A50.88,50.88,0,0,1,79.7,5.06a52.5,52.5,0,0,1,8.76,6.39,52.51,52.51,0,0,1,17.39,38.82Z"/><path class="cls-3" d="M125.32,44.21a14.4,14.4,0,0,1,1.16-5.77,14.66,14.66,0,0,1,3.18-4.72,15.54,15.54,0,0,1,4.74-3.18,14.72,14.72,0,0,1,11.55,0,14.87,14.87,0,0,1,7.9,7.9,14.72,14.72,0,0,1,0,11.55,15.54,15.54,0,0,1-3.18,4.74,14.89,14.89,0,0,1-16.27,3.18A14.77,14.77,0,0,1,126.48,50,14.42,14.42,0,0,1,125.32,44.21Zm1.89,0a12.55,12.55,0,0,0,1,5,13,13,0,0,0,6.91,6.91,13.11,13.11,0,0,0,10.09,0,13.18,13.18,0,0,0,4.13-2.78,13.35,13.35,0,0,0,2.78-4.13,13.11,13.11,0,0,0,0-10.09A13.35,13.35,0,0,0,149.35,35a13.18,13.18,0,0,0-4.13-2.78,13.11,13.11,0,0,0-10.09,0,13,13,0,0,0-6.91,6.91A12.54,12.54,0,0,0,127.21,44.21Z"/><path class="cls-3" d="M179.6,40.82A10.2,10.2,0,0,1,177.69,47a11.16,11.16,0,0,1-5,3.82l6.75,6.56a1.11,1.11,0,0,1,.28.66.71.71,0,0,1-.24.66,1.08,1.08,0,0,1-.66.26,1,1,0,0,1-.7-.26l-7.55-7.22a14.75,14.75,0,0,1-2.92.29h-5.19v6.32a.9.9,0,0,1-.28.66.92.92,0,0,1-1.32,0,.91.91,0,0,1-.29-.66V30.26a1.37,1.37,0,0,0,0-.36.51.51,0,0,1,0-.3.36.36,0,0,1,.23-.22,2.41,2.41,0,0,1,.66-.07h6.23a12.47,12.47,0,0,1,4.64.88,11.91,11.91,0,0,1,3.82,2.4,11.3,11.3,0,0,1,3.52,8.23Zm-1.89,0a9.27,9.27,0,0,0-.8-3.84,9.42,9.42,0,0,0-2.17-3,10.15,10.15,0,0,0-3.21-2,10.41,10.41,0,0,0-3.91-.73h-5.19V49.92h5.19a11.7,11.7,0,0,0,3.91-.64,9.7,9.7,0,0,0,3.21-1.81,8.61,8.61,0,0,0,3-6.65Z"/><path class="cls-3" d="M204.35,30.26a1,1,0,0,1-.94.94h-9.76V58.13a.95.95,0,0,1-1.89,0V31.2H182a.93.93,0,0,1-.66-1.6.91.91,0,0,1,.66-.29h21.41a.91.91,0,0,1,.66.29A.9.9,0,0,1,204.35,30.26Z"/><path class="cls-3" d="M232.83,58.13a.9.9,0,0,1-.28.66.92.92,0,0,1-1.32,0,.9.9,0,0,1-.28-.66V45.25H211.71V58.13a.95.95,0,0,1-1.89,0V30.26a1,1,0,0,0,0-.36.51.51,0,0,1,0-.3.38.38,0,0,1,.24-.22,2.41,2.41,0,0,1,.66-.07,1,1,0,0,1,.78.29,1,1,0,0,1,.26.66V43.37H231V30.26a1.36,1.36,0,0,0,0-.36.51.51,0,0,1,0-.3.36.36,0,0,1,.24-.22,2.31,2.31,0,0,1,.66-.07,1,1,0,0,1,.77.29.92.92,0,0,1,.26.66Z"/><path class="cls-3" d="M238.3,44.21a14.77,14.77,0,0,1,4.34-10.49,15.54,15.54,0,0,1,4.74-3.18,14.72,14.72,0,0,1,11.55,0,15.33,15.33,0,0,1,4.72,3.18,15.15,15.15,0,0,1,3.18,4.72,14.72,14.72,0,0,1,0,11.55,15.36,15.36,0,0,1-3.18,4.74,14.89,14.89,0,0,1-16.27,3.18A14.77,14.77,0,0,1,239.46,50,14.59,14.59,0,0,1,238.3,44.21Zm1.89,0a12.72,12.72,0,0,0,1,5A13.21,13.21,0,0,0,244,53.39a13,13,0,0,0,4.12,2.78,13.11,13.11,0,0,0,10.09,0,13,13,0,0,0,6.91-6.91,13.11,13.11,0,0,0,0-10.09,13,13,0,0,0-6.91-6.91,13.11,13.11,0,0,0-10.09,0A13,13,0,0,0,244,35a13.21,13.21,0,0,0-2.79,4.13A12.71,12.71,0,0,0,240.19,44.21Z"/><path class="cls-3" d="M275,59.07a.94.94,0,0,1-.66-.28.91.91,0,0,1-.29-.66V30.26a1.37,1.37,0,0,0,0-.36.51.51,0,0,1,0-.3.36.36,0,0,1,.23-.22,2.41,2.41,0,0,1,.66-.07h7.59a14.43,14.43,0,0,1,5.78,1.18,15.15,15.15,0,0,1,7.95,8,14.72,14.72,0,0,1,0,11.55,15.27,15.27,0,0,1-3.21,4.74,14.85,14.85,0,0,1-4.74,3.18,14.59,14.59,0,0,1-5.78,1.16Zm20.51-14.86a12.39,12.39,0,0,0-1-5,13.24,13.24,0,0,0-6.93-6.93,12.4,12.4,0,0,0-5.05-1H276v26h6.55a12.55,12.55,0,0,0,5.05-1,13.18,13.18,0,0,0,4.13-2.78,13.41,13.41,0,0,0,2.8-4.13A12.4,12.4,0,0,0,295.55,44.21Z"/><path class="cls-3" d="M325.4,58.13a1,1,0,0,1-.94.94H305.83a.77.77,0,0,1-.61-.28,1,1,0,0,1-.24-.66V30.59a1.16,1.16,0,0,0-.07-.4,1.25,1.25,0,0,1-.07-.4.48.48,0,0,1,.12-.33.61.61,0,0,1,.49-.15h19a.91.91,0,0,1,.66.29.92.92,0,0,1,0,1.32.9.9,0,0,1-.66.28H306.87V44.64h14.52a.93.93,0,0,1,.66,1.6.91.91,0,0,1-.66.29H306.87V57.18h17.59a1,1,0,0,1,.94,1Z"/><path class="cls-3" d="M345.39,35.35a10.2,10.2,0,0,0-3-3,7.87,7.87,0,0,0-4-1,8.09,8.09,0,0,0-2.42.38,6.81,6.81,0,0,0-2.15,1.09,6,6,0,0,0-1.56,1.72,4.11,4.11,0,0,0-.61,2.19,3.59,3.59,0,0,0,.68,2.19,7.34,7.34,0,0,0,1.7,1.63,12.2,12.2,0,0,0,2.19,1.2c.79.33,1.53.61,2.22.83,1.07.37,2.15.81,3.25,1.29a16.57,16.57,0,0,1,3.05,1.75A8.94,8.94,0,0,1,347,47.94a6,6,0,0,1,.92,3.11,6.64,6.64,0,0,1-.68,3.16,7.76,7.76,0,0,1-2.06,2.55,9.91,9.91,0,0,1-3.11,1.7,12.91,12.91,0,0,1-7.07.22,10.76,10.76,0,0,1-2.67-1.09,8.19,8.19,0,0,1-2-1.61,6.9,6.9,0,0,1-1.25-1.91,2.45,2.45,0,0,1-.26-.9.64.64,0,0,1,.35-.61.86.86,0,0,1,.73-.14.7.7,0,0,1,.54.47,5.4,5.4,0,0,0,1,1.63,7.22,7.22,0,0,0,1.67,1.39,9.63,9.63,0,0,0,2.27,1,9.07,9.07,0,0,0,2.78.4,10,10,0,0,0,2.87-.42,8.38,8.38,0,0,0,2.55-1.23,6.25,6.25,0,0,0,1.82-2,4.85,4.85,0,0,0,.63-2.6,4.31,4.31,0,0,0-.78-2.34,8,8,0,0,0-1.83-1.89A13.9,13.9,0,0,0,341,45.42a19.58,19.58,0,0,0-2.55-1c-1.19-.38-2.31-.8-3.35-1.25a14.66,14.66,0,0,1-2.76-1.59,6.57,6.57,0,0,1-1.88-2.1,5.55,5.55,0,0,1-.69-2.81,6,6,0,0,1,.76-3,7.44,7.44,0,0,1,2-2.29A9.46,9.46,0,0,1,335.25,30a10,10,0,0,1,6.11-.12,10.32,10.32,0,0,1,2.34,1.11,9.29,9.29,0,0,1,1.83,1.58A13.33,13.33,0,0,1,347,34.41a.7.7,0,0,1,.12.66,1.15,1.15,0,0,1-.45.56.71.71,0,0,1-.66.14A1,1,0,0,1,345.39,35.35Z"/><path class="cls-3" d="M355.86,58.13a.9.9,0,0,1-.28.66.92.92,0,0,1-1.32,0,.91.91,0,0,1-.29-.66V30.3a1.34,1.34,0,0,0,0-.35.54.54,0,0,1,0-.31.37.37,0,0,1,.23-.21,2.07,2.07,0,0,1,.66-.07,1,1,0,0,1,.78.28,1,1,0,0,1,.26.66Z"/><path class="cls-3" d="M375.62,57.18a11.18,11.18,0,0,0,3.84-.68,12.54,12.54,0,0,0,3.37-1.86,11.23,11.23,0,0,0,2.53-2.76,8.84,8.84,0,0,0,1.29-3.42H378.5a1,1,0,0,1-.95-.94.91.91,0,0,1,.28-.66.92.92,0,0,1,.67-.29h9.28a1,1,0,0,1,.62.31.93.93,0,0,1,.23.64V58.13a.9.9,0,0,1-.28.66.92.92,0,0,1-1.32,0,.9.9,0,0,1-.28-.66V52.7a6.85,6.85,0,0,1-1.51,2.38,12,12,0,0,1-2.6,2.06,14.36,14.36,0,0,1-3.32,1.41,13.23,13.23,0,0,1-3.7.52,14.24,14.24,0,0,1-5.73-1.16,13.93,13.93,0,0,1-4.6-3.18,15.22,15.22,0,0,1-4.15-10.52,14.77,14.77,0,0,1,4.34-10.49,15.54,15.54,0,0,1,4.74-3.18A14.26,14.26,0,0,1,376,29.36a16.24,16.24,0,0,1,3.41.33,11.93,11.93,0,0,1,2.86,1,13.7,13.7,0,0,1,2.52,1.63,26.65,26.65,0,0,1,2.48,2.29.91.91,0,0,1,.28.66,1,1,0,0,1-.94.94,1.08,1.08,0,0,1-.81-.43,14.24,14.24,0,0,0-4.48-3.41A12.32,12.32,0,0,0,376,31.25a12.72,12.72,0,0,0-5.05,1A13.18,13.18,0,0,0,366.82,35,13.35,13.35,0,0,0,364,39.17a12.71,12.71,0,0,0-1,5,13.21,13.21,0,0,0,3.61,9.18,12.1,12.1,0,0,0,4,2.78A12.24,12.24,0,0,0,375.62,57.18Z"/><path class="cls-3" d="M422.07,58.13a.91.91,0,0,1-.29.66,1,1,0,0,1-1.22.14,2.27,2.27,0,0,1-.38-.38L398,32.85V58.13a.9.9,0,0,1-.28.66.94.94,0,0,1-.66.28.92.92,0,0,1-.66-.28.91.91,0,0,1-.29-.66V30.21a1.29,1.29,0,0,0,0-.35.61.61,0,0,1,0-.29.33.33,0,0,1,.22-.19,2.55,2.55,0,0,1,.7-.07.66.66,0,0,1,.5.22l.54.54c.28.28.67.69,1.16,1.22s1.2,1.35,2.14,2.43l3.87,4.48c1.63,1.91,3.68,4.29,6.13,7.17l8.91,10.45V30.21a.81.81,0,0,0-.07-.35.54.54,0,0,1-.05-.29c0-.07.1-.14.24-.19a2.87,2.87,0,0,1,.73-.07c.5,0,.8.09.89.26a1.29,1.29,0,0,1,.15.64Z"/><path class="cls-3" d="M128.28,88.11a4.92,4.92,0,0,1-2-1.92,5.8,5.8,0,0,1-.69-2.87V77.38a5.77,5.77,0,0,1,.69-2.86,4.79,4.79,0,0,1,2-1.92,6.09,6.09,0,0,1,2.95-.69,6.19,6.19,0,0,1,3,.69,4.82,4.82,0,0,1,2,1.92,5.77,5.77,0,0,1,.69,2.86v5.94a5.8,5.8,0,0,1-.69,2.87,5,5,0,0,1-2,1.92,6.18,6.18,0,0,1-3,.68A6.09,6.09,0,0,1,128.28,88.11Zm5.82-1.84a3.86,3.86,0,0,0,1.09-2.88v-6a3.9,3.9,0,0,0-1.09-2.89,4.27,4.27,0,0,0-5.72,0,3.9,3.9,0,0,0-1.09,2.89v6a4,4,0,0,0,6.81,2.88Z"/><path class="cls-3" d="M146,88.37v-16a.21.21,0,0,1,.23-.24h5.57a5.38,5.38,0,0,1,3.71,1.23,4.2,4.2,0,0,1,1.38,3.32v7.4a4.24,4.24,0,0,1-1.38,3.33,5.37,5.37,0,0,1-3.71,1.22h-5.57A.2.2,0,0,1,146,88.37Zm1.77-1.23h4.1a3.36,3.36,0,0,0,2.44-.89,3.26,3.26,0,0,0,.91-2.41v-7a3.11,3.11,0,0,0-3.35-3.33h-4.1c-.07,0-.1,0-.1.1V87.05C147.66,87.11,147.69,87.14,147.76,87.14Z"/><path class="cls-3" d="M167.84,88.11a4.92,4.92,0,0,1-2-1.92,5.8,5.8,0,0,1-.69-2.87V77.38a5.77,5.77,0,0,1,.69-2.86,4.79,4.79,0,0,1,2-1.92,6.09,6.09,0,0,1,2.95-.69,6.16,6.16,0,0,1,3,.69,4.7,4.7,0,0,1,2,1.92,5.77,5.77,0,0,1,.7,2.86v5.94a5.81,5.81,0,0,1-.7,2.87,4.82,4.82,0,0,1-2,1.92,6.16,6.16,0,0,1-3,.68A6.09,6.09,0,0,1,167.84,88.11Zm5.83-1.84a3.89,3.89,0,0,0,1.08-2.88v-6a3.93,3.93,0,0,0-1.08-2.89,3.88,3.88,0,0,0-2.88-1.1,3.83,3.83,0,0,0-2.85,1.1,3.9,3.9,0,0,0-1.09,2.89v6a3.74,3.74,0,0,0,3.94,4A3.91,3.91,0,0,0,173.67,86.27Z"/><path class="cls-3" d="M195.62,72.1h1.2a.21.21,0,0,1,.24.24v16c0,.16-.08.23-.24.23h-1.18a.33.33,0,0,1-.28-.16l-8-13.09s0-.06-.07,0-.05,0-.05.08l0,13c0,.16-.07.23-.23.23h-1.2c-.16,0-.24-.07-.24-.23v-16a.21.21,0,0,1,.24-.24H187a.36.36,0,0,1,.29.17l8,13.08c0,.05,0,.07.07.06a.08.08,0,0,0,0-.08l0-13A.21.21,0,0,1,195.62,72.1Z"/><path class="cls-3" d="M216.86,72.34v1a.21.21,0,0,1-.23.24H212a.08.08,0,0,0-.09.09V88.37c0,.16-.08.23-.24.23h-1.2c-.16,0-.23-.07-.23-.23V73.68c0-.06,0-.09-.1-.09h-4.43a.21.21,0,0,1-.24-.24v-1a.21.21,0,0,1,.24-.24h10.92A.21.21,0,0,1,216.86,72.34Z"/><path class="cls-3" d="M226.29,88.11a4.92,4.92,0,0,1-2-1.92,5.8,5.8,0,0,1-.69-2.87V77.38a5.77,5.77,0,0,1,.69-2.86,4.79,4.79,0,0,1,2-1.92,6.09,6.09,0,0,1,3-.69,6.19,6.19,0,0,1,3,.69,4.82,4.82,0,0,1,2,1.92,5.77,5.77,0,0,1,.69,2.86v5.94a5.8,5.8,0,0,1-.69,2.87,5,5,0,0,1-2,1.92,6.18,6.18,0,0,1-3,.68A6.09,6.09,0,0,1,226.29,88.11Zm5.83-1.84a3.89,3.89,0,0,0,1.08-2.88v-6a3.75,3.75,0,0,0-4-4,3.83,3.83,0,0,0-2.85,1.1,3.9,3.9,0,0,0-1.09,2.89v6a3.74,3.74,0,0,0,3.94,4A3.93,3.93,0,0,0,232.12,86.27Z"/><path class="cls-3" d="M244,88.37v-16a.21.21,0,0,1,.23-.24h1.21a.21.21,0,0,1,.23.24V87.05c0,.06,0,.09.1.09h8.32a.21.21,0,0,1,.24.24v1c0,.16-.08.23-.24.23h-9.86A.2.2,0,0,1,244,88.37Z"/><path class="cls-3" d="M264.65,88.11a4.92,4.92,0,0,1-2-1.92,5.8,5.8,0,0,1-.69-2.87V77.38a5.77,5.77,0,0,1,.69-2.86,4.79,4.79,0,0,1,2-1.92,6.09,6.09,0,0,1,3-.69,6.16,6.16,0,0,1,3,.69,4.76,4.76,0,0,1,2,1.92,5.77,5.77,0,0,1,.69,2.86v5.94a5.8,5.8,0,0,1-.69,2.87,4.88,4.88,0,0,1-2,1.92,6.16,6.16,0,0,1-3,.68A6.09,6.09,0,0,1,264.65,88.11Zm5.83-1.84a3.89,3.89,0,0,0,1.08-2.88v-6a3.75,3.75,0,0,0-4-4,3.83,3.83,0,0,0-2.85,1.1,3.9,3.9,0,0,0-1.09,2.89v6a3.74,3.74,0,0,0,3.94,4A3.93,3.93,0,0,0,270.48,86.27Z"/><path class="cls-3" d="M284.48,88.15a4.82,4.82,0,0,1-1.94-1.83,5.19,5.19,0,0,1-.7-2.71V77.1a5.16,5.16,0,0,1,.7-2.71,4.69,4.69,0,0,1,1.94-1.83,6.82,6.82,0,0,1,5.79,0,4.59,4.59,0,0,1,1.94,1.78,4.88,4.88,0,0,1,.69,2.58v.31a.21.21,0,0,1-.24.23h-1.2a.21.21,0,0,1-.24-.23v-.29a3.38,3.38,0,0,0-1.05-2.57,4.39,4.39,0,0,0-5.59,0,3.49,3.49,0,0,0-1.07,2.66v6.6a3.51,3.51,0,0,0,1.09,2.67,4,4,0,0,0,2.85,1,3.91,3.91,0,0,0,2.75-.94,3.27,3.27,0,0,0,1-2.52V81.72a.08.08,0,0,0-.09-.09h-3.47a.21.21,0,0,1-.23-.24v-1a.21.21,0,0,1,.23-.24h5a.21.21,0,0,1,.24.24v3a5.15,5.15,0,0,1-1.5,3.94,5.63,5.63,0,0,1-4,1.41A6.23,6.23,0,0,1,284.48,88.15Z"/><path class="cls-3" d="M302,88.37v-16a.21.21,0,0,1,.23-.24h1.21a.21.21,0,0,1,.23.24v16a.2.2,0,0,1-.23.23h-1.21A.2.2,0,0,1,302,88.37Z"/><path class="cls-3" d="M322.79,88.42l-.94-3s-.05-.08-.09-.08h-7.05a.11.11,0,0,0-.1.08l-.94,3a.27.27,0,0,1-.28.18h-1.28c-.17,0-.23-.08-.19-.25l5.22-16.06a.26.26,0,0,1,.28-.19H319a.26.26,0,0,1,.28.19l5.24,16.06,0,.09c0,.11-.07.16-.21.16h-1.27A.29.29,0,0,1,322.79,88.42ZM315.1,84a.09.09,0,0,0,.08,0h6.08a.09.09,0,0,0,.08,0,.06.06,0,0,0,0-.08l-3.07-9.62s0,0-.07,0a.08.08,0,0,0-.07,0l-3.07,9.62A.06.06,0,0,0,315.1,84Z"/></g></g></svg>