<svg xmlns="http://www.w3.org/2000/svg" xmlns:xlink="http://www.w3.org/1999/xlink" viewBox="0 0 353.66 313.1"><defs><style>.cls-1{fill:url(#Gradiente_sem_nome_16);}.cls-2{fill:url(#Gradiente_sem_nome_16-2);}.cls-3{fill:gray;}</style><linearGradient id="Gradiente_sem_nome_16" x1="148.62" y1="176.94" x2="148.62" y2="16.23" gradientUnits="userSpaceOnUse"><stop offset="0" stop-color="#e9c79a"/><stop offset="1" stop-color="#e7bd88"/></linearGradient><linearGradient id="Gradiente_sem_nome_16-2" x1="222.35" y1="199.52" x2="222.35" y2="0" xlink:href="#Gradiente_sem_nome_16"/></defs><g id="Layer_2" data-name="Layer 2"><g id="Layer_1-2" data-name="Layer 1"><path class="cls-1" d="M222.35,57.71h-1.72c-1-1.72-2.06-3.39-3.2-5a81.15,81.15,0,0,0-6.93-8.53,83.29,83.29,0,0,0-8.09-7.4,79.83,79.83,0,0,0-9.06-6.11,76.29,76.29,0,0,0-9.82-4.71L181,25c-.85-.31-1.72-.56-2.58-.84l-1.3-.41-1.31-.34-1.32-.34c-.43-.12-.87-.24-1.32-.32l-2.65-.56c-.44-.1-.89-.16-1.34-.23l-1.33-.21-1.34-.21-1.35-.15c-.9-.09-1.79-.2-2.69-.27l-2.7-.15-.68,0h-2c-1.81-.05-3.61.08-5.4.15-.9.07-1.79.17-2.69.26-.45,0-.89.07-1.34.13l-1.33.2-1.33.2c-.45.06-.89.12-1.33.22l-2.64.53c-.44.07-.87.19-1.31.3l-1.3.33-1.3.33-1.29.39c-.85.27-1.71.5-2.56.8l-2.52.91c-.42.15-.84.32-1.25.49l-1.23.52L127,27.2l-1.21.57c-.8.4-1.62.75-2.4,1.17L121,30.21a78.64,78.64,0,0,0-8.89,5.89,82.14,82.14,0,0,0-7.91,7.12,80.07,80.07,0,0,0-6.76,8.17,76.35,76.35,0,0,0-5.47,9l-1.16,2.37c-.38.79-.7,1.61-1,2.42l-.52,1.21-.45,1.23-.46,1.24c-.15.41-.31.82-.44,1.24l-.79,2.51c-.25.84-.45,1.69-.68,2.54l-.33,1.27-.26,1.28L85.58,79c-.09.43-.19.85-.25,1.29l-.4,2.59c-.08.43-.12.87-.17,1.3l-.13,1.3-.14,1.31c0,.43,0,.87-.08,1.3,0,.88-.11,1.75-.14,2.62,0,1.75,0,3.49.07,5.23l.06,1.31,0,.65.07.65.25,2.6c.1.86.25,1.72.37,2.58l.19,1.29.26,1.28.25,1.27c.09.43.16.86.28,1.28l.63,2.51c.1.43.23.84.36,1.25l.38,1.24.39,1.25c.13.41.29.81.43,1.22.31.81.57,1.63.9,2.43l1,2.39A73.77,73.77,0,0,0,95,130.31a75.64,75.64,0,0,0,6.12,8.31,79.29,79.29,0,0,0,7.25,7.3,76.61,76.61,0,0,0,8.22,6.13,72,72,0,0,0,9,4.85l2.35,1c.78.33,1.59.6,2.39.9l1.19.44,1.21.38L134,160c.4.13.8.26,1.22.36l2.45.64c.82.21,1.66.35,2.49.53l1.24.26,1.25.19c.84.13,1.67.29,2.51.38a70.31,70.31,0,0,0,7.81.52h2.3v14.05l-2.3-.1a84.59,84.59,0,0,1-9.79-1c-1-.15-2-.37-3-.56l-1.49-.29-1.48-.37c-1-.25-2-.47-2.93-.76l-2.9-.88c-.49-.14-1-.31-1.44-.48L128.5,172l-1.42-.51-1.4-.58c-.93-.39-1.87-.76-2.78-1.18l-2.74-1.3a86.36,86.36,0,0,1-10.37-6.13,88.47,88.47,0,0,1-9.34-7.57,90.38,90.38,0,0,1-8.11-8.84A86.81,86.81,0,0,1,85.63,136a84.91,84.91,0,0,1-5.17-10.75l-1-2.79c-.34-.94-.62-1.89-.93-2.84-.14-.47-.3-.94-.44-1.42l-.38-1.43-.38-1.44c-.13-.48-.26-1-.35-1.45l-.62-2.91c-.11-.48-.17-1-.26-1.46L75.83,108l-.23-1.46-.16-1.48c-.1-1-.23-2-.31-2.95l-.17-3,0-.74V96.21c-.05-2,.09-3.94.16-5.91.08-1,.18-2,.27-2.94,0-.49.09-1,.15-1.47l.21-1.46L75.91,83c.07-.48.13-1,.23-1.45l.58-2.9c.09-.48.21-1,.33-1.43l.36-1.43.36-1.43.42-1.41c.29-.94.55-1.88.88-2.81l1-2.77c.16-.47.35-.92.54-1.37l.56-1.36.57-1.35.62-1.33c.43-.88.83-1.78,1.28-2.64L85,56.7a83.6,83.6,0,0,1,6.45-9.76,87.88,87.88,0,0,1,7.78-8.69,87,87,0,0,1,9-7.43,84.21,84.21,0,0,1,9.91-6l2.6-1.27c.88-.42,1.77-.78,2.66-1.17l1.33-.56,2.71-1c.45-.17.91-.34,1.37-.48l2.75-.88c.92-.28,1.86-.5,2.79-.75l1.4-.37,1.41-.3,1.41-.29c.47-.1.94-.21,1.42-.27l2.84-.46c.48-.08,1-.12,1.43-.18l1.44-.15,1.43-.16c.47,0,1-.06,1.43-.08,1-.06,1.92-.12,2.87-.16,1.92,0,3.83-.06,5.75.06l1.43.07.72,0,.71.07,2.85.27c.95.11,1.9.27,2.84.4l1.42.21,1.41.28,1.4.28c.46.1.94.17,1.4.3l2.77.69c.47.11.92.26,1.38.39l2.73.84c.45.15.9.32,1.34.48.9.33,1.8.62,2.68,1l2.64,1.1a77.43,77.43,0,0,1,19.2,12,84,84,0,0,1,8,8,83.47,83.47,0,0,1,6.76,9Q220.77,54.63,222.35,57.71Z"/><path class="cls-2" d="M278.77,96.83a104.18,104.18,0,0,1-2,21,101.74,101.74,0,0,1-16.78,38.61l-1.54,2.16c-.53.7-1.08,1.39-1.63,2.08s-1.09,1.39-1.65,2.07l-1.73,2-.88,1c-.29.33-.58.67-.89,1l-1.83,1.91c-1.2,1.3-2.52,2.48-3.79,3.7a102.43,102.43,0,0,1-16.89,12.71,101,101,0,0,1-39.66,13.64c-1.75.19-3.49.44-5.25.51s-3.5.26-5.25.24c-2.62.06-5.14,0-7.66,0v.06h-5.37V103.28h5.37v90.94c2.53,0,5.05-.08,7.47-.2,1.67,0,3.32-.23,5-.37s3.29-.4,4.94-.62a97.8,97.8,0,0,0,37-13.58,100,100,0,0,0,15.65-12.06c1.18-1.16,2.4-2.27,3.5-3.49l1.7-1.8c.29-.3.56-.61.82-.92l.81-.94,1.61-1.87c.53-.64,1-1.3,1.54-1.94l1.52-2,1.42-2a98.46,98.46,0,0,0,9.68-17.19A97.63,97.63,0,0,0,272,96.83a98,98,0,0,0-17.16-56.08A98.83,98.83,0,0,0,242.05,25.5,101.35,101.35,0,0,0,226.39,13a100.11,100.11,0,0,0-17.93-9.12L206.09,3l-.91-.33V0l.49.14,1.24.38,2.48.76a98.35,98.35,0,0,1,19,8.46,101.26,101.26,0,0,1,48.08,66.09A103.58,103.58,0,0,1,278.77,96.83Z"/><path class="cls-3" d="M0,259.65a17.56,17.56,0,0,1,5.17-12.5,18.21,18.21,0,0,1,5.65-3.79A17,17,0,0,1,17.7,242a17.06,17.06,0,0,1,6.89,1.41A17.75,17.75,0,0,1,34,252.77a17.63,17.63,0,0,1,0,13.77,18.51,18.51,0,0,1-3.79,5.65A17.58,17.58,0,0,1,24.59,276a17.37,17.37,0,0,1-6.89,1.38A17.33,17.33,0,0,1,10.82,276a17.6,17.6,0,0,1-9.44-9.44A17.37,17.37,0,0,1,0,259.65Zm2.25,0a15,15,0,0,0,1.21,6,15.52,15.52,0,0,0,3.31,4.91,15.7,15.7,0,0,0,4.92,3.32,15,15,0,0,0,6,1.21,15,15,0,0,0,6-1.21A15.62,15.62,0,0,0,32,265.67a15.56,15.56,0,0,0,0-12,15.7,15.7,0,0,0-3.32-4.92,15.52,15.52,0,0,0-4.91-3.31,15,15,0,0,0-6-1.21,15,15,0,0,0-6,1.21,15.44,15.44,0,0,0-8.23,8.23A15,15,0,0,0,2.25,259.65Z"/><path class="cls-3" d="M64.69,255.61A12.16,12.16,0,0,1,62.41,263a13.36,13.36,0,0,1-6,4.55l8,7.81a1.28,1.28,0,0,1,.34.79.85.85,0,0,1-.28.78,1.34,1.34,0,0,1-.79.31,1.12,1.12,0,0,1-.84-.31l-9-8.6a17.26,17.26,0,0,1-3.48.34H44.23v7.53a1.08,1.08,0,0,1-.34.79,1.1,1.1,0,0,1-.79.34A1.16,1.16,0,0,1,42,276.23V243a1.42,1.42,0,0,0-.06-.42.77.77,0,0,1,0-.37.46.46,0,0,1,.29-.25,2.3,2.3,0,0,1,.78-.09h7.42a14.94,14.94,0,0,1,5.54,1,14.31,14.31,0,0,1,4.55,2.87,13.42,13.42,0,0,1,3.06,4.36A13.23,13.23,0,0,1,64.69,255.61Zm-2.25,0a10.89,10.89,0,0,0-1-4.58,11.31,11.31,0,0,0-2.58-3.63A12.11,12.11,0,0,0,55.07,245a12.49,12.49,0,0,0-4.66-.87H44.23v22.31h6.18a14,14,0,0,0,4.66-.76,11.41,11.41,0,0,0,3.83-2.16,10.31,10.31,0,0,0,3.54-7.92Z"/><path class="cls-3" d="M94.19,243a1.14,1.14,0,0,1-1.12,1.12H81.43v32.09a1.13,1.13,0,0,1-2.25,0V244.14H67.55a1.13,1.13,0,0,1,0-2.25H93.07A1.16,1.16,0,0,1,94.19,243Z"/><path class="cls-3" d="M128.13,276.23a1.12,1.12,0,0,1-2.24,0V260.89H103v15.34a1.16,1.16,0,0,1-1.13,1.13,1.16,1.16,0,0,1-1.12-1.13V243a1.42,1.42,0,0,0-.06-.42.58.58,0,0,1,0-.37.44.44,0,0,1,.28-.25,2.41,2.41,0,0,1,.79-.09,1.23,1.23,0,0,1,.93.34,1.17,1.17,0,0,1,.31.79v15.62h22.93V243a1.42,1.42,0,0,0-.06-.42.58.58,0,0,1,0-.37.44.44,0,0,1,.28-.25,2.37,2.37,0,0,1,.79-.09,1.19,1.19,0,0,1,.92.34,1.13,1.13,0,0,1,.31.79Z"/><path class="cls-3" d="M134.65,259.65a17.56,17.56,0,0,1,5.17-12.5,18.33,18.33,0,0,1,5.65-3.79,17.51,17.51,0,0,1,13.77,0,17.75,17.75,0,0,1,9.41,9.41,17.51,17.51,0,0,1,0,13.77,18.33,18.33,0,0,1-3.79,5.65A17.76,17.76,0,0,1,145.47,276a17.6,17.6,0,0,1-9.44-9.44A17.37,17.37,0,0,1,134.65,259.65Zm2.25,0a15,15,0,0,0,1.21,6,15.52,15.52,0,0,0,3.31,4.91,15.7,15.7,0,0,0,4.92,3.32,15.56,15.56,0,0,0,12,0,15.7,15.7,0,0,0,4.92-3.32,15.52,15.52,0,0,0,3.31-4.91,15.56,15.56,0,0,0,0-12,15.44,15.44,0,0,0-8.23-8.23,15.56,15.56,0,0,0-12,0,15.44,15.44,0,0,0-8.23,8.23A15,15,0,0,0,136.9,259.65Z"/><path class="cls-3" d="M178.43,277.36a1.16,1.16,0,0,1-1.12-1.13V243a1.42,1.42,0,0,0-.06-.42.58.58,0,0,1,0-.37.44.44,0,0,1,.28-.25,2.37,2.37,0,0,1,.79-.09h9.05a17,17,0,0,1,6.88,1.41,18,18,0,0,1,9.47,9.47,17.51,17.51,0,0,1,0,13.77,18.24,18.24,0,0,1-3.82,5.65,17.71,17.71,0,0,1-5.65,3.79,17.33,17.33,0,0,1-6.88,1.38Zm24.45-17.71a14.67,14.67,0,0,0-1.24-6,15.83,15.83,0,0,0-8.26-8.26,14.83,14.83,0,0,0-6-1.24h-7.81v31h7.81a15,15,0,0,0,6-1.21,15.7,15.7,0,0,0,4.92-3.32,15.94,15.94,0,0,0,3.34-4.91A14.71,14.71,0,0,0,202.88,259.65Z"/><path class="cls-3" d="M238.45,276.23a1.14,1.14,0,0,1-1.12,1.13h-22.2a.93.93,0,0,1-.73-.34,1.19,1.19,0,0,1-.28-.79V243.41a1.45,1.45,0,0,0-.09-.48,1.6,1.6,0,0,1-.08-.47.65.65,0,0,1,.14-.4.77.77,0,0,1,.59-.17h22.65a1.13,1.13,0,0,1,0,2.25h-21v16h17.31a1.05,1.05,0,0,1,.78.34,1,1,0,0,1,.34.78,1.06,1.06,0,0,1-.34.79,1.09,1.09,0,0,1-.78.34H216.37v12.7h21a1.14,1.14,0,0,1,1.12,1.12Z"/><path class="cls-3" d="M262.28,249.09a12.12,12.12,0,0,0-3.57-3.63,9.42,9.42,0,0,0-4.75-1.21,10,10,0,0,0-2.89.45,8.46,8.46,0,0,0-2.56,1.3,7,7,0,0,0-1.85,2.05,4.92,4.92,0,0,0-.73,2.61,4.27,4.27,0,0,0,.81,2.61,8.36,8.36,0,0,0,2,1.94,13.72,13.72,0,0,0,2.61,1.44c.93.39,1.82.72,2.64,1,1.27.45,2.57,1,3.88,1.55a19.16,19.16,0,0,1,3.62,2.08,10.35,10.35,0,0,1,2.7,2.83,7.2,7.2,0,0,1,1.1,3.71,7.91,7.91,0,0,1-.82,3.77,9.33,9.33,0,0,1-2.44,3,12,12,0,0,1-3.71,2,15.29,15.29,0,0,1-8.43.26,13.24,13.24,0,0,1-3.18-1.29,9.52,9.52,0,0,1-2.41-1.93,8,8,0,0,1-1.49-2.27,3.11,3.11,0,0,1-.31-1.07.77.77,0,0,1,.42-.73,1,1,0,0,1,.87-.17.88.88,0,0,1,.65.56,6.48,6.48,0,0,0,1.2,1.94,8.93,8.93,0,0,0,2,1.66,11.94,11.94,0,0,0,2.7,1.21,10.89,10.89,0,0,0,3.31.48,11.78,11.78,0,0,0,3.43-.51,10.69,10.69,0,0,0,3-1.46,7.53,7.53,0,0,0,2.16-2.37,5.77,5.77,0,0,0,.76-3.09,5.17,5.17,0,0,0-.93-2.79,9.52,9.52,0,0,0-2.19-2.25,16.31,16.31,0,0,0-2.9-1.72,23.25,23.25,0,0,0-3-1.18,41.06,41.06,0,0,1-4-1.49,17.28,17.28,0,0,1-3.29-1.89,8.32,8.32,0,0,1-2.25-2.5,6.73,6.73,0,0,1-.81-3.35,7.07,7.07,0,0,1,.9-3.52,9.15,9.15,0,0,1,2.33-2.73,11.56,11.56,0,0,1,3.29-1.78A11.34,11.34,0,0,1,254,242a11.55,11.55,0,0,1,3.52.5,11.89,11.89,0,0,1,2.78,1.32,11.37,11.37,0,0,1,2.19,1.89,16.24,16.24,0,0,1,1.69,2.24.86.86,0,0,1,.14.79,1.52,1.52,0,0,1-.54.68.88.88,0,0,1-.78.16A1.22,1.22,0,0,1,262.28,249.09Z"/><path class="cls-3" d="M274.76,276.23a1.12,1.12,0,0,1-.34.79,1.1,1.1,0,0,1-.79.34,1.16,1.16,0,0,1-1.12-1.13V243.07a1.47,1.47,0,0,0-.06-.42.55.55,0,0,1,0-.36.42.42,0,0,1,.28-.25,2.41,2.41,0,0,1,.79-.09,1.19,1.19,0,0,1,.93.34,1.15,1.15,0,0,1,.31.78Z"/><path class="cls-3" d="M298.3,275.11a13,13,0,0,0,4.58-.82,14.57,14.57,0,0,0,4-2.22,13.21,13.21,0,0,0,3-3.28,10.63,10.63,0,0,0,1.55-4.08h-9.73a1.16,1.16,0,0,1-1.12-1.12,1.16,1.16,0,0,1,1.12-1.13H312.8a1.12,1.12,0,0,1,.73.37,1.07,1.07,0,0,1,.29.76v12.64a1.13,1.13,0,0,1-2.25,0v-6.46a8.15,8.15,0,0,1-1.8,2.84,13.82,13.82,0,0,1-3.09,2.44,16.76,16.76,0,0,1-4,1.69,16.16,16.16,0,0,1-4.42.62,16.9,16.9,0,0,1-6.82-1.38,16.55,16.55,0,0,1-5.48-3.79,18.09,18.09,0,0,1-4.95-12.54,17.56,17.56,0,0,1,5.17-12.5,18.21,18.21,0,0,1,5.65-3.79,17,17,0,0,1,6.88-1.41,19.63,19.63,0,0,1,4.08.39,14.84,14.84,0,0,1,3.4,1.18,17.7,17.7,0,0,1,3,1.94,34.05,34.05,0,0,1,2.95,2.73,1.09,1.09,0,0,1,.33.79,1.14,1.14,0,0,1-1.12,1.12,1.29,1.29,0,0,1-1-.51,17.27,17.27,0,0,0-5.34-4.07,14.75,14.75,0,0,0-6.35-1.32,15,15,0,0,0-6,1.21,15.44,15.44,0,0,0-8.23,8.23,15,15,0,0,0-1.21,6,15.77,15.77,0,0,0,4.3,10.93,14.6,14.6,0,0,0,10.7,4.53Z"/><path class="cls-3" d="M353.66,276.23a1.16,1.16,0,0,1-1.12,1.13,1.15,1.15,0,0,1-.68-.17,2.39,2.39,0,0,1-.45-.45l-26.47-30.63v30.12a1.13,1.13,0,0,1-2.25,0V243a1.42,1.42,0,0,0-.05-.42.69.69,0,0,1,0-.34c0-.09.1-.16.25-.22a2.64,2.64,0,0,1,.85-.09.82.82,0,0,1,.59.26c.16.17.38.38.64.64s.8.83,1.38,1.46,1.43,1.61,2.56,2.9,2.66,3.07,4.6,5.34,4.39,5.11,7.31,8.54l10.62,12.45V243a1.16,1.16,0,0,0-.08-.42.55.55,0,0,1-.06-.34c0-.09.11-.16.28-.22a2.92,2.92,0,0,1,.87-.09c.6,0,1,.11,1.07.31a1.61,1.61,0,0,1,.17.76Z"/><path class="cls-3" d="M61.45,312.29A5.74,5.74,0,0,1,59.11,310a6.86,6.86,0,0,1-.83-3.41V299.5a6.86,6.86,0,0,1,.83-3.41,5.74,5.74,0,0,1,2.34-2.29,8.05,8.05,0,0,1,7,0,5.73,5.73,0,0,1,2.36,2.29,6.76,6.76,0,0,1,.83,3.41v7.09a6.76,6.76,0,0,1-.83,3.41,5.73,5.73,0,0,1-2.36,2.29,8.05,8.05,0,0,1-7,0Zm6.94-2.19a4.61,4.61,0,0,0,1.3-3.43v-7.19a4.68,4.68,0,0,0-1.3-3.45,5.12,5.12,0,0,0-6.82,0,4.68,4.68,0,0,0-1.3,3.45v7.19a4.83,4.83,0,0,0,8.12,3.43Z"/><path class="cls-3" d="M82.56,312.6V293.49a.24.24,0,0,1,.28-.28h6.63a6.42,6.42,0,0,1,4.42,1.46,5,5,0,0,1,1.65,4v8.83a5,5,0,0,1-1.65,4,6.42,6.42,0,0,1-4.42,1.46H82.84A.24.24,0,0,1,82.56,312.6Zm2.1-1.46h4.89a4,4,0,0,0,2.91-1.07,3.85,3.85,0,0,0,1.08-2.87v-8.29A3.91,3.91,0,0,0,92.48,296,4,4,0,0,0,89.55,295H84.66a.1.1,0,0,0-.11.11v16A.1.1,0,0,0,84.66,311.14Z"/><path class="cls-3" d="M108.61,312.29a5.7,5.7,0,0,1-2.35-2.29,6.86,6.86,0,0,1-.83-3.41V299.5a6.86,6.86,0,0,1,.83-3.41,5.7,5.7,0,0,1,2.35-2.29,8,8,0,0,1,7,0,5.73,5.73,0,0,1,2.36,2.29,6.76,6.76,0,0,1,.83,3.41v7.09A6.76,6.76,0,0,1,118,310a5.73,5.73,0,0,1-2.36,2.29,8,8,0,0,1-7,0Zm6.94-2.19a4.65,4.65,0,0,0,1.29-3.43v-7.19a4.71,4.71,0,0,0-1.29-3.45,4.63,4.63,0,0,0-3.43-1.3,4.56,4.56,0,0,0-3.4,1.3,4.71,4.71,0,0,0-1.29,3.45v7.19a4.65,4.65,0,0,0,1.29,3.43,4.59,4.59,0,0,0,3.4,1.29A4.66,4.66,0,0,0,115.55,310.1Z"/><path class="cls-3" d="M141.71,293.21h1.43a.24.24,0,0,1,.28.28V312.6a.24.24,0,0,1-.28.28h-1.41a.4.4,0,0,1-.33-.2l-9.59-15.59c0-.06,0-.08-.08-.07s-.06,0-.06.1l0,15.48a.24.24,0,0,1-.28.28H130a.24.24,0,0,1-.28-.28V293.49a.24.24,0,0,1,.28-.28h1.4a.42.42,0,0,1,.34.2L141.31,309c0,.06.05.08.09.07s0,0,0-.1l0-15.48A.24.24,0,0,1,141.71,293.21Z"/><path class="cls-3" d="M167,293.49v1.21a.24.24,0,0,1-.28.28h-5.51a.1.1,0,0,0-.11.11V312.6a.24.24,0,0,1-.28.28h-1.43a.24.24,0,0,1-.28-.28V295.09A.1.1,0,0,0,159,295h-5.29a.25.25,0,0,1-.28-.28v-1.21a.25.25,0,0,1,.28-.28h13A.24.24,0,0,1,167,293.49Z"/><path class="cls-3" d="M178.26,312.29a5.74,5.74,0,0,1-2.34-2.29,6.76,6.76,0,0,1-.83-3.41V299.5a6.76,6.76,0,0,1,.83-3.41,5.74,5.74,0,0,1,2.34-2.29,8.05,8.05,0,0,1,7,0,5.73,5.73,0,0,1,2.36,2.29,6.86,6.86,0,0,1,.83,3.41v7.09a6.86,6.86,0,0,1-.83,3.41,5.73,5.73,0,0,1-2.36,2.29,8.05,8.05,0,0,1-7,0Zm6.94-2.19a4.61,4.61,0,0,0,1.3-3.43v-7.19a4.68,4.68,0,0,0-1.3-3.45,5.12,5.12,0,0,0-6.82,0,4.68,4.68,0,0,0-1.3,3.45v7.19a4.83,4.83,0,0,0,8.12,3.43Z"/><path class="cls-3" d="M199.37,312.6V293.49a.24.24,0,0,1,.28-.28h1.43a.24.24,0,0,1,.28.28V311a.1.1,0,0,0,.11.11h9.92a.24.24,0,0,1,.28.28v1.18a.24.24,0,0,1-.28.28H199.65A.24.24,0,0,1,199.37,312.6Z"/><path class="cls-3" d="M224,312.29a5.82,5.82,0,0,1-2.35-2.29,6.86,6.86,0,0,1-.82-3.41V299.5a6.86,6.86,0,0,1,.82-3.41A5.82,5.82,0,0,1,224,293.8a7.33,7.33,0,0,1,3.51-.81,7.44,7.44,0,0,1,3.53.81,5.73,5.73,0,0,1,2.36,2.29,6.86,6.86,0,0,1,.83,3.41v7.09a6.86,6.86,0,0,1-.83,3.41,5.73,5.73,0,0,1-2.36,2.29,7.44,7.44,0,0,1-3.53.81A7.33,7.33,0,0,1,224,312.29Zm6.94-2.19a4.65,4.65,0,0,0,1.29-3.43v-7.19a4.71,4.71,0,0,0-1.29-3.45,5.14,5.14,0,0,0-6.83,0,4.71,4.71,0,0,0-1.29,3.45v7.19a4.83,4.83,0,0,0,8.12,3.43Z"/><path class="cls-3" d="M247.61,312.33a5.67,5.67,0,0,1-2.32-2.18,6.23,6.23,0,0,1-.82-3.23v-7.75a6.23,6.23,0,0,1,.82-3.23,5.67,5.67,0,0,1,2.32-2.18,7.38,7.38,0,0,1,3.46-.77,7.6,7.6,0,0,1,3.44.75,5.57,5.57,0,0,1,2.32,2.13,5.87,5.87,0,0,1,.81,3.07v.37a.24.24,0,0,1-.28.28h-1.43a.24.24,0,0,1-.28-.28V299a4,4,0,0,0-1.25-3.06,4.66,4.66,0,0,0-3.33-1.18,4.6,4.6,0,0,0-3.34,1.21,4.15,4.15,0,0,0-1.27,3.17V307a4.13,4.13,0,0,0,1.29,3.17,4.76,4.76,0,0,0,3.4,1.21,4.66,4.66,0,0,0,3.28-1.12,3.9,3.9,0,0,0,1.22-3v-2.56a.1.1,0,0,0-.11-.11h-4.13c-.19,0-.29-.09-.29-.28V303.1c0-.19.1-.28.29-.28h6a.24.24,0,0,1,.28.28v3.63a6.15,6.15,0,0,1-1.78,4.69,6.71,6.71,0,0,1-4.79,1.68A7.38,7.38,0,0,1,247.61,312.33Z"/><path class="cls-3" d="M268.49,312.6V293.49a.24.24,0,0,1,.28-.28h1.43c.19,0,.29.09.29.28V312.6c0,.19-.1.28-.29.28h-1.43A.24.24,0,0,1,268.49,312.6Z"/><path class="cls-3" d="M293.27,312.66l-1.12-3.55A.12.12,0,0,0,292,309h-8.4a.12.12,0,0,0-.12.08l-1.12,3.55a.34.34,0,0,1-.34.22h-1.52c-.2,0-.28-.1-.22-.31l6.21-19.14a.34.34,0,0,1,.34-.22h1.91a.34.34,0,0,1,.34.22l6.23,19.14,0,.11c0,.13-.08.2-.25.2h-1.52A.34.34,0,0,1,293.27,312.66Zm-9.17-5.3a.13.13,0,0,0,.1,0h7.25a.14.14,0,0,0,.1,0,.09.09,0,0,0,0-.1l-3.65-11.46a.1.1,0,0,0-.09-.06s-.06,0-.08.06l-3.65,11.46A.08.08,0,0,0,284.1,307.36Z"/></g></g></svg>