<svg xmlns="http://www.w3.org/2000/svg" viewBox="0 0 306.42 306.08"><defs><style>.cls-1{fill:#fff;}</style></defs><title>ic_dente</title><g id="Camada_2" data-name="Camada 2"><g id="Camada_1-2" data-name="Camada 1"><path class="cls-1" d="M77.85,294.67A209.61,209.61,0,0,1,61.54,274c-5.07-7.18-9.79-14.6-14.26-22.19s-8.63-15.37-12.52-23.3c-1.92-4-3.82-8-5.58-12S25.67,208.4,24,204.3c-3.22-8.24-6.29-16.57-8.91-25.06-.7-2.11-1.29-4.25-1.93-6.38s-1.28-4.26-1.82-6.41c-1.1-4.31-2.28-8.61-3.23-13-.48-2.17-1-4.34-1.46-6.52L5.39,140.4l-.63-3.28-.53-3.31L3.17,127.2c-.35-2.21-.57-4.43-.85-6.64s-.59-4.43-.75-6.66C1.2,109.44.69,105,.5,100.52l-.32-6.7C.1,91.58.11,89.34.07,87.11l0-3.36c0-1.13,0-2.21,0-3.42l.1-3.56c0-1.18.15-2.39.24-3.58.15-2.38.54-4.8.87-7.21l.68-3.62c.21-1.21.58-2.42.86-3.63A60.83,60.83,0,0,1,8.35,44.44a50,50,0,0,1,9.81-12.56,48.17,48.17,0,0,1,13.3-8.64A59.85,59.85,0,0,1,46,19a83,83,0,0,1,14.41-.9,105.75,105.75,0,0,1,13.89,1.26q6.81,1.05,13.38,2.72a195.83,195.83,0,0,1,25.44,8.41,256.47,256.47,0,0,1,24,11.25,221.12,221.12,0,0,1,22.49,13.66,459.12,459.12,0,0,0-49.48-15.56A233,233,0,0,0,85.17,35C81,34.47,76.9,34,72.8,33.82a111.31,111.31,0,0,0-12.12,0A66.54,66.54,0,0,0,49.19,35.5,43.6,43.6,0,0,0,39,39.19,31.11,31.11,0,0,0,25.11,53.34a54.91,54.91,0,0,0-5.05,21.31c0,1-.15,1.93-.16,2.92l0,3c0,1,0,2,0,3.09L20,86.77c.06,2.11.07,4.21.16,6.31l.35,6.31c.13,4.21.59,8.4.89,12.61s.91,8.38,1.36,12.57c1.07,8.38,2.33,16.74,3.93,25.05.7,4.18,1.64,8.31,2.5,12.46.43,2.08,1,4.13,1.42,6.2s.91,4.15,1.46,6.2l1.57,6.18c.52,2.06,1.14,4.1,1.67,6.16,1.07,4.12,2.34,8.19,3.53,12.29s2.49,8.16,3.88,12.2,2.77,8.09,4.15,12.15q4.35,12.09,9.22,24C62.56,263.45,69.71,279.2,77.85,294.67Z"/><path class="cls-1" d="M131.51,32.29a177.61,177.61,0,0,1,31.16-17.77A175.41,175.41,0,0,1,197.15,3,142.44,142.44,0,0,1,215.44.31a97.81,97.81,0,0,1,18.95.32,82.92,82.92,0,0,1,36.29,13.14A78.57,78.57,0,0,1,297,43a86.34,86.34,0,0,1,4.12,9.09A86.21,86.21,0,0,1,304,61.61a87.18,87.18,0,0,1,2.4,19.71c.06,6.27-.23,12.29-.54,18.34s-.76,12-1.26,18q-1.61,17.94-4,35.77c-1.68,11.88-3.59,23.74-5.87,35.55s-4.93,23.58-8.13,35.27A297,297,0,0,1,275.06,259a167.52,167.52,0,0,1-8,16.93,93.84,93.84,0,0,1-11,16.09,51.19,51.19,0,0,1-7.55,7.18,34.93,34.93,0,0,1-9.88,5.37,28.23,28.23,0,0,1-5.8,1.32,30.65,30.65,0,0,1-5.6.11,66.87,66.87,0,0,1-9.75-1.26A63.83,63.83,0,0,1,199.17,298a66.76,66.76,0,0,1-15.27-11.74A84.31,84.31,0,0,1,165,254.41a105.82,105.82,0,0,1-5.45-35.55,121.38,121.38,0,0,0,10.59,33.43c5.13,10.34,11.93,19.75,20.42,26.79a54.94,54.94,0,0,0,29.09,12.72,58.4,58.4,0,0,0,7.94.36,15.77,15.77,0,0,0,3.26-.28,13.79,13.79,0,0,0,2.8-.89c3.7-1.57,7.25-4.92,10.36-9a78.06,78.06,0,0,0,8.19-13.79,160.16,160.16,0,0,0,6.43-15.56,328,328,0,0,0,9.62-33.12c2.68-11.28,5.06-22.69,7.07-34.19s3.91-23.05,5.46-34.66,3-23.23,4.14-34.87q.9-8.72,1.56-17.43c.44-5.79.76-11.61.91-17.19A67.83,67.83,0,0,0,286,65.66a65.13,65.13,0,0,0-4.88-14.77,61.36,61.36,0,0,0-8.31-13.2,62.59,62.59,0,0,0-11.3-10.93L260,25.58l-1.65-1.11c-1.08-.76-2.24-1.41-3.38-2.1s-2.33-1.28-3.5-1.94-2.4-1.18-3.63-1.71a76,76,0,0,0-15.47-4.83c-2.67-.55-5.39-.93-8.14-1.22-1.37-.15-2.75-.2-4.13-.31s-2.81-.09-4.22-.14a132.13,132.13,0,0,0-17.07.78,170.31,170.31,0,0,0-17.11,2.69c-5.7,1.14-11.36,2.6-17,4.23s-11.21,3.5-16.74,5.56S136.9,29.78,131.51,32.29Z"/></g></g></svg>