<svg xmlns="http://www.w3.org/2000/svg" viewBox="0 0 209.12 149.65"><defs><style>.cls-1{fill:#fff;}</style></defs><title>ic_equipe</title><g id="Camada_2" data-name="Camada 2"><g id="Camada_1-2" data-name="Camada 1"><path class="cls-1" d="M75.7,68.3c-7.73,2.64-11.58,7.83-11.6,16,0,19.65,0,39.31,0,59,0,1.33,0,2.67-.09,4a2.29,2.29,0,0,1-2.13,2.37c-1.41,0-1.94-1.14-2.08-2.36a31.31,31.31,0,0,1-.12-3.49c0-19.33,0-38.65,0-58,0-12.51,5.34-19.28,17.64-22.33C79.49,63,80.18,61.59,81,60c2.33-4.47,3.37-4.54,6.42-.4,4.34,5.9,8.88,11.68,12.84,17.82,2.58,4,3.82,2.83,5.93-.25,4.12-6,8.51-11.9,12.86-17.79,2.88-3.9,4-3.83,6.16.41,1,2,2,3.41,4.53,4,9.69,2.25,16.15,9.62,16.29,19.46.31,20.82.11,41.64.13,62.46,0,1.73-.08,3.81-2.14,3.89-2.7.1-2.26-2.39-2.26-4.11,0-20,0-40,0-60,0-9.06-3.65-14.4-11.93-17,2.15,4.25-.8,5.39-3.47,6.81-5.73,3-11.32,6.32-17.13,9.17-2.67,1.31-3.42,3-3.4,5.79.12,15.82.06,31.65.05,47.47a29.31,29.31,0,0,1-.16,4,2.11,2.11,0,0,1-1.88,2c-1.49.14-2.1-.91-2.28-2.11a29.46,29.46,0,0,1-.12-4c0-15.16-.17-30.32.1-45.47.08-4.12-1.29-6.31-4.91-8C90.64,81.24,85,77.74,79,74.8c-2.75-1.36-3.76-3-2.7-5.88l.57-.61Zm17.85,9.19c.46.24.67,1.37,1.34.69.48-.48.1-1.19-.61-1.49L84.73,63C80.16,70.39,80.16,70.4,87,74.08,89.14,75.26,91.35,76.36,93.55,77.49Zm18-.42.54,1,12.07-6.46a1.8,1.8,0,0,0,.71-2.9c-1.14-1.7-1.29-4-3.34-5.4Z"/><path class="cls-1" d="M209.08,112.23c0,6.49,0,13,0,19.48,0,1.77.26,4.13-2.43,4-2.39-.1-1.91-2.36-1.92-3.91q-.08-18.72,0-37.46c0-6.82-2.2-12.38-8.48-15.77-1.3-.7-2.69-1.85-2.47,1.16.14,1.79-1.74,2.27-3,3-4.37,2.39-8.71,4.85-13.21,7-2.48,1.19-3.29,2.78-3.18,5.45.19,4.82.09,9.66,0,14.48,0,1.41.29,3.32-2.06,3.16-2-.14-2.12-1.76-2.12-3.33,0-5-.12-10,.07-15a4.38,4.38,0,0,0-2.81-4.62c-4.6-2.3-9.08-4.85-13.67-7.18-2.48-1.25-3.69-2.79-2.12-5.5,1.8-3.09,1.92-8.36,5.32-9,3.87-.7,4.83,4.71,7.22,7.29,3,3.24,4.59,9.38,8.41,9.59,2.38.14,5.12-6.26,7.69-9.72,1.09-1.47,2.24-2.91,3.24-4.43,2.2-3.36,4.35-5,6.46,0,.64,1.5,2,1.48,3.24,1.85,9.9,2.79,15.53,10,15.79,20.45C209.2,99.57,209.07,105.9,209.08,112.23ZM157.9,74.1c-2.54,5.22-1.76,6.27,5.48,7.53Zm23,7.76c7.86-1.65,8.54-2.67,5.38-7.48C184.64,76.74,183,79,181,81.86Z"/><path class="cls-1" d="M36.6,86.37c4.08-5.63,7.82-10.92,11.7-16.11,2.71-3.63,3.73-3.47,5.85.6,5,9.55,5.27,10.28-4.7,14.52-8.78,3.73-12.74,9-10.94,18.4a22.83,22.83,0,0,1,0,5.48c-.08,1.41.3,3.35-1.83,3.52-2.36.18-2.52-1.68-2.53-3.42,0-4.83-.17-9.67.06-14.49.12-2.69-.68-4.21-3.19-5.37-4.21-2-8.23-4.34-12.32-6.56-1-.55-2.64-1-2.87-1.83-1.78-6.16-4.39-1.86-6.2-.36A15.12,15.12,0,0,0,4.17,93.08c.07,12.16,0,24.32,0,36.48,0,1.16,0,2.33,0,3.49,0,1.48-.48,2.74-2.21,2.7S0,134.22,0,132.87c0-7.83,0-15.66,0-23.49,0-5.66-.06-11.33,0-17A19.88,19.88,0,0,1,15,73c1.89-.52,3.36-.93,4.16-2.93,1.36-3.36,3.19-2.83,5-.33,2.07,2.82,4.09,5.67,6.17,8.48C32.35,80.83,34.37,83.44,36.6,86.37Zm-7.74-3c-2.15-3-3.4-4.87-4.75-6.65C23.55,76,23.17,74.62,22,75c-.71.26-1.15,1.45-1.57,2.29-.58,1.15.08,1.88,1.06,2.38C23.53,80.74,25.54,81.74,28.86,83.42Zm15.85-1c8.74-2.69,9.15-3.31,5.84-7.94Z"/><path class="cls-1" d="M130.23,32c0,16.74-12.23,28.81-28.3,27.84-15.3-.92-26.36-15.13-24.33-31.2.89-7.08,3.21-13.55,7.79-19.1,10.68-12.93,27.29-12.62,37.51.67A35.85,35.85,0,0,1,130.23,32Zm-4.18-1.33c-.53-7.34-3.14-15-9.66-21-7.17-6.62-16.47-7.08-24-.87S81.59,23.37,81.88,33c.41,13.44,9.78,22.77,22.31,22.56S126.14,45.25,126.05,30.63Z"/><path class="cls-1" d="M193.2,43.11c0,13-9.11,24.07-20.52,24.72-13.35.75-24.79-12.18-23.33-26.41,1.3-12.66,9.86-22.12,20.53-22.66C182.78,18.09,193.15,28.93,193.2,43.11ZM153.53,43c.28,2.23.38,4.07.77,5.85,1.76,8,8.76,14.33,16.18,14.76s14.9-5.22,17.38-13.21a22.63,22.63,0,0,0,.4-12.77c-2.22-8.48-9-14.6-16.65-14.8-7.45-.19-14.55,5.45-17,13.7A52.17,52.17,0,0,0,153.53,43Z"/><path class="cls-1" d="M59.32,43.22c0,14.12-10,25-22.59,24.61-11.21-.35-20.23-10.35-21-23.27-.86-14.47,9.6-26.25,22.89-25.8C50.15,19.14,59.3,30,59.32,43.22ZM20.07,41.84C20,53.92,27,62.77,36.34,63.63c8.31.77,16.51-6.12,18.4-15.69A27.25,27.25,0,0,0,55,40.5c-.78-9.11-8.09-16.92-16.25-17.6-8-.66-15.66,5.35-18,14.23A29,29,0,0,0,20.07,41.84Z"/><path class="cls-1" d="M132.13,100.87c0,4.46,1.72,10.35-.47,13s-8.43.35-12.83.9c-5.09.64-7-1-6.54-6.35.51-6.11.19-12.3.08-18.45,0-2.33.69-3.43,3.12-3.17,1,.11,2,0,3,0,4.57.34,10.71-2,13.26,1,2.2,2.62.46,8.56.46,13ZM128,105.19c1-4.37-.48-6-5-5.61-3.65.3-6.6-.34-6.26,5.2.26,4.31,1,6.12,5.73,5.84C126.42,110.38,129.44,110.3,128,105.19ZM122.7,91h0c-1,0-2,0-3,0-1.58,0-3,.07-3.07,2.2s1.18,2.43,2.89,2.38q3.21-.09,6.42,0c1.74,0,2.29-.83,2.24-2.44-.05-1.41-.59-2.15-2.06-2.11C125,91,123.85,91,122.7,91Z"/><path class="cls-1" d="M95.92,133.81c-1.64-.32-2.75-1.23-2.73-2.95a2.8,2.8,0,0,1,5.6.16A2.83,2.83,0,0,1,95.92,133.81Z"/><path class="cls-1" d="M96.52,96.85c-2.07,0-3.15-.93-3.33-2.6s1.06-2.73,2.63-2.91a2.55,2.55,0,0,1,3,2.55A2.76,2.76,0,0,1,96.52,96.85Z"/><path class="cls-1" d="M95.87,115.29c-1.53-.38-2.83-1.09-2.68-2.9a2.8,2.8,0,0,1,5.59.22C98.73,114.3,97.6,115.21,95.87,115.29Z"/><path class="cls-1" d="M94.28,76.69c.71.3,1.09,1,.61,1.49-.67.68-.88-.45-1.34-.68Z"/><path class="cls-1" d="M75.7,68.3h1.17l-.57.61C76.09,68.72,75.89,68.51,75.7,68.3Z"/></g></g></svg>