<svg xmlns="http://www.w3.org/2000/svg" viewBox="0 0 211.12 151.65"><defs><style>.cls-1{fill:#fff;}</style></defs><title>ic_equipe_1</title><g id="Camada_2" data-name="Camada 2"><g id="Camada_1-2" data-name="Camada 1"><path class="cls-1" d="M62.8,151.15c-1.42,0-2.31-1-2.52-2.81a30.79,30.79,0,0,1-.12-3.32V129.66c0-14,0-28.55,0-42.83,0-12.69,5.6-19.73,18-22.82,1.94-.48,2.54-1.64,3.38-3.24,1.24-2.38,2.2-3.74,3.48-3.74s2.34,1.24,3.81,3.24c1.08,1.47,2.18,2.94,3.28,4.41,3.24,4.33,6.59,8.81,9.57,13.43,1,1.57,1.81,2.33,2.46,2.33s1.52-1,2.63-2.59c3.61-5.29,7.49-10.52,11.23-15.58L119.68,60c1.35-1.83,2.5-3,3.68-3s2.23,1.35,3.33,3.53,2,3.22,4.2,3.73c10.14,2.36,16.53,10,16.67,20,.22,14.59.18,29.44.15,43.79,0,6.23,0,12.45,0,18.67,0,1.5,0,4.29-2.62,4.39h-.17a2.55,2.55,0,0,1-1.9-.68c-.79-.82-.76-2.13-.73-3.29,0-.22,0-.43,0-.64q0-14.06,0-28.12,0-15.91,0-31.84c0-8.51-3.28-13.55-10.53-16.18,1.29,3.6-1.29,4.94-3.59,6.13l-.55.29c-2.09,1.11-4.16,2.25-6.23,3.39-3.55,2-7.21,4-10.91,5.79-2.36,1.15-3.14,2.5-3.12,5.34.1,12.43.08,25.07.06,37.3V139a27.62,27.62,0,0,1-.17,3.74,2.6,2.6,0,0,1-2.32,2.46h-.31c-1.37,0-2.28-.93-2.51-2.55a22.49,22.49,0,0,1-.14-3.27v-.79c0-4,0-8,0-12,0-11-.07-22.3.13-33.45.07-3.88-1.18-5.93-4.62-7.58C94.2,84,91,82.28,88,80.6c-2.67-1.47-5.43-3-8.2-4.36-3.1-1.54-4-3.53-3-6.44h0c-7.5,2.59-11.16,7.67-11.18,15.53q0,20.16,0,40.32v19.4a30,30,0,0,1-.09,3.28,2.75,2.75,0,0,1-2.61,2.82Zm23-86.29c-2,3.24-3,4.93-2.65,6.06s2,2,5.11,3.72c1.54.84,3.11,1.64,4.67,2.44l1.9,1a1.69,1.69,0,0,1,.59.6l.14.2,0,0a.17.17,0,0,0,.06-.18.83.83,0,0,0-.52-.49.52.52,0,0,1-.21-.18Zm27.51,13.51,3.11-1.67,8.52-4.56a1.57,1.57,0,0,0,.88-.93,1.65,1.65,0,0,0-.34-1.25,11,11,0,0,1-1-2.06,7,7,0,0,0-1.8-2.92L113.12,78.1Z"/><path class="cls-1" d="M123.36,57.49c.94,0,1.78,1.07,2.88,3.26,1,2,2,3.41,4.53,4,9.69,2.25,16.15,9.62,16.29,19.46.31,20.82.11,41.64.13,62.46,0,1.73-.08,3.81-2.14,3.89h-.15c-2.53,0-2.11-2.42-2.11-4.11,0-20,0-40,0-60,0-9.06-3.65-14.4-11.93-17,2.15,4.25-.8,5.39-3.47,6.81-5.73,3-11.32,6.32-17.13,9.17-2.67,1.31-3.42,3-3.4,5.79.12,15.82.06,31.65.05,47.47a29.31,29.31,0,0,1-.16,4,2.11,2.11,0,0,1-1.88,2h-.26c-1.31,0-1.86-1-2-2.12a29.46,29.46,0,0,1-.12-4c0-15.16-.17-30.32.1-45.47.08-4.12-1.29-6.31-4.91-8C91.64,82.24,86,78.74,80,75.8c-2.75-1.36-3.76-3-2.7-5.88l.57-.61H76.7c-7.73,2.64-11.58,7.83-11.6,16,0,19.65,0,39.31,0,59,0,1.33,0,2.67-.09,4a2.29,2.29,0,0,1-2.13,2.37H62.8c-1.37,0-1.88-1.16-2-2.36a31.31,31.31,0,0,1-.12-3.49c0-19.33,0-38.65,0-58,0-12.51,5.34-19.28,17.64-22.33C80.49,64,81.18,62.59,82,61c1.2-2.29,2-3.43,3-3.43s1.92,1,3.4,3c4.34,5.9,8.88,11.68,12.84,17.82,1.16,1.8,2,2.56,2.88,2.56,1,0,1.89-1.12,3-2.81,4.12-6,8.51-11.9,12.86-17.79,1.4-1.89,2.39-2.85,3.28-2.85M95.5,79.39a.58.58,0,0,0,.39-.21c.48-.48.1-1.19-.61-1.49L85.73,64C81.16,71.39,81.16,71.4,88,75.08c2.17,1.18,4.38,2.28,6.58,3.41.36.19.56.9,1,.9M113.06,79l12.07-6.46a1.8,1.8,0,0,0,.71-2.9c-1.14-1.7-1.29-4-3.34-5.4l-10,13.79.54,1m10.3-22.55c-1.4,0-2.6,1.24-4.08,3.25l-1.63,2.2C113.9,67,110,72.26,106.39,77.57c-.52.77-1.62,2.37-2.22,2.37-.21,0-.82-.21-2-2.1-3-4.64-6.34-9.12-9.59-13.46Q90.89,62.19,89.26,60c-1.6-2.18-2.81-3.44-4.21-3.44s-2.6,1.46-3.91,4c-.82,1.58-1.35,2.6-3.07,3-12.69,3.15-18.36,10.34-18.4,23.3,0,14.35,0,28.94,0,43.05q0,7.45,0,14.92V145a29.38,29.38,0,0,0,.13,3.36c.23,2.06,1.33,3.25,3,3.25h.09a3.27,3.27,0,0,0,3.1-3.27,31,31,0,0,0,.09-3.32v-19.3c0-13.25,0-26.95,0-40.43,0-7.41,3.19-12.11,10-14.73-.8,3.48,1.57,5.13,3.5,6.09,2.76,1.37,5.52,2.88,8.19,4.35,3.06,1.68,6.23,3.43,9.45,5s4.41,3.43,4.34,7.12c-.2,11.17-.16,22.52-.13,33.5,0,4,0,8,0,12,0,.26,0,.52,0,.78a23.72,23.72,0,0,0,.14,3.35c.27,1.87,1.39,3,3,3h.36a3.1,3.1,0,0,0,2.77-2.89,28.88,28.88,0,0,0,.17-3.81v-.31c0-3.45,0-6.89,0-10.34,0-12.17,0-24.76-.06-37.14,0-2.63.67-3.82,2.84-4.88,3.7-1.82,7.37-3.84,10.92-5.8,2-1.12,4.15-2.28,6.24-3.39l.54-.29c2-1.06,4.74-2.46,4.11-5.74,6.38,2.64,9.26,7.45,9.28,15.35,0,10.61,0,21.4,0,31.83q0,14.07,0,28.14c0,.19,0,.4,0,.61,0,1.2-.07,2.69.88,3.66a3,3,0,0,0,2.25.83h.19c3.1-.12,3.1-3.34,3.1-4.89,0-6.23,0-12.46,0-18.69,0-14.35.07-29.19-.15-43.78-.15-10.19-6.69-18-17.06-20.42-2-.47-2.86-1.5-3.86-3.48-1.19-2.35-2.24-3.8-3.78-3.8Zm-9,20.7,7.5-10.35.78-1.09A7.84,7.84,0,0,1,124,68.09,12.24,12.24,0,0,0,125,70.24a1.17,1.17,0,0,1,.27.85c-.07.27-.38.48-.62.61Q120.31,74,116,76.34l-1.59.85Zm-20.94-.38-.33-.17C91.58,75.85,90,75,88.45,74.2c-2.89-1.55-4.63-2.5-4.87-3.41s.65-2.46,2.2-5l7.67,11Z"/><path class="cls-1" d="M207.61,137.22c-2.55-.11-2.47-2.29-2.42-3.74,0-.23,0-.45,0-.67-.05-12.29-.06-24.89,0-37.46C205.21,88,202.52,83,197,80l-.44-.25a3.55,3.55,0,0,0-1.12-.5s-.26.2-.17,1.43c.14,1.81-1.35,2.51-2.55,3.08-.25.12-.49.23-.71.36l-1.87,1c-3.69,2-7.5,4.13-11.36,6-2.22,1.06-3,2.41-2.9,5,.17,4.25.11,8.58.05,12.76l0,1.75c0,.15,0,.3,0,.46a3.52,3.52,0,0,1-.64,2.61,2.22,2.22,0,0,1-1.65.59h-.3c-2.6-.19-2.6-2.55-2.59-3.83,0-1.43,0-2.87,0-4.31,0-3.5-.05-7.12.09-10.69a3.89,3.89,0,0,0-2.53-4.15c-2.39-1.2-4.78-2.48-7.09-3.72-2.15-1.15-4.38-2.34-6.59-3.46-1.7-.86-2.64-1.77-3-2.87a4.18,4.18,0,0,1,.65-3.33,18,18,0,0,0,1.37-3.45c.85-2.61,1.73-5.3,4.29-5.76a4,4,0,0,1,.75-.07c2.48,0,3.75,2.3,5,4.53a15.78,15.78,0,0,0,1.93,3,24.25,24.25,0,0,1,2.87,4.2c1.54,2.63,3,5.11,5.21,5.23h0c1.39,0,3.21-3,4.82-5.71.8-1.34,1.63-2.72,2.44-3.81.3-.41.61-.81.91-1.21.79-1,1.59-2.11,2.31-3.2,1.53-2.33,2.76-3.37,4-3.37s2.37,1.13,3.36,3.47c.42,1,1.15,1.15,2.17,1.38.25.06.5.11.75.18,10.15,2.87,15.89,10.3,16.15,20.93.11,4.29.08,8.66.06,12.88,0,2,0,4.07,0,6.11v4.46c0,5,0,10,0,15v.46c0,1.19,0,2.53-.82,3.37a2.63,2.63,0,0,1-1.93.69ZM183.12,82.1c3-.69,5-1.36,5.38-2.33.32-.77-.22-2-1.19-3.5Zm-24.13-6c-.9,2-1.1,3.06-.74,3.78.5,1,2.26,1.53,5,2.06Z"/><path class="cls-1" d="M188.11,68.78c1,0,1.94.9,2.9,3.17.64,1.5,2,1.48,3.24,1.85,9.9,2.79,15.53,10,15.79,20.45.16,6.32,0,12.65,0,19,0,6.49,0,13,0,19.48,0,1.73.24,4-2.24,4h-.19c-2.39-.1-1.91-2.36-1.92-3.91q-.08-18.72,0-37.46c0-6.82-2.2-12.38-8.48-15.77a5.19,5.19,0,0,0-1.8-.81c-.49,0-.78.46-.67,2,.14,1.79-1.74,2.27-3,3-4.37,2.39-8.71,4.85-13.21,7-2.48,1.19-3.29,2.78-3.18,5.45.19,4.82.09,9.66,0,14.48,0,1.35.26,3.17-1.79,3.17h-.27c-2-.14-2.12-1.76-2.12-3.33,0-5-.12-10,.07-15a4.38,4.38,0,0,0-2.81-4.62c-4.6-2.3-9.08-4.85-13.67-7.18-2.48-1.25-3.69-2.79-2.12-5.5,1.8-3.09,1.92-8.36,5.32-9a3.85,3.85,0,0,1,.66-.06c3.33,0,4.31,4.92,6.56,7.35,3,3.24,4.59,9.38,8.41,9.59h.08c2.35,0,5.07-6.3,7.61-9.73,1.09-1.47,2.24-2.91,3.24-4.43,1.2-1.84,2.39-3.15,3.56-3.15M164.38,82.63,158.9,75.1c-2.54,5.22-1.76,6.27,5.48,7.53m17.57.23c7.86-1.65,8.54-2.67,5.38-7.48C185.64,77.74,184,80,182,82.86m6.16-15.08h0c-1.79,0-3.23,1.82-4.4,3.6-.71,1.08-1.51,2.14-2.29,3.17-.3.4-.61.8-.91,1.21-.82,1.11-1.66,2.5-2.47,3.85-1.31,2.18-3.29,5.48-4.34,5.48-2-.11-3.36-2.48-4.83-5a24.93,24.93,0,0,0-2.93-4.29,15.08,15.08,0,0,1-1.87-2.88c-1.24-2.25-2.64-4.79-5.42-4.79a4.92,4.92,0,0,0-.84.07c-2.86.52-3.82,3.49-4.67,6.11a18.42,18.42,0,0,1-1.33,3.35,4.66,4.66,0,0,0-.7,3.72c.49,1.63,2.07,2.59,3.23,3.18,2.2,1.11,4.42,2.3,6.56,3.45,2.32,1.24,4.71,2.53,7.11,3.73a3.38,3.38,0,0,1,2.26,3.68c-.14,3.58-.11,7.21-.09,10.72,0,1.43,0,2.87,0,4.3,0,1.23,0,4.11,3.05,4.33h.34a2.74,2.74,0,0,0,2-.73,4,4,0,0,0,.78-3c0-.15,0-.3,0-.44l0-1.79c.06-4.18.12-8.5-.05-12.75-.1-2.36.59-3.54,2.61-4.51,3.87-1.84,7.69-3.94,11.37-6l1.89-1,.69-.34c1.19-.56,3-1.42,2.83-3.56a5.09,5.09,0,0,1,0-.77l.56.31.44.25c5.45,2.94,8,7.67,8,14.89,0,12.56,0,25.17,0,37.47,0,.2,0,.42,0,.64-.05,1.34-.15,4.13,2.9,4.26h.23a3.13,3.13,0,0,0,2.29-.84c1-1,1-2.5.95-3.72v-.46c0-5,0-10.12,0-15.05v-4.43c0-2,0-4,0-6.07,0-4.24.05-8.62-.06-12.94-.27-10.86-6.13-18.45-16.51-21.39l-.78-.19c-1-.23-1.51-.37-1.82-1.09-.39-.93-1.6-3.77-3.82-3.77Zm-26,13.38c-1.7-.39-3-.87-3.37-1.53a3.64,3.64,0,0,1,.4-2.55l3,4.08Zm22.24.14,3-4.13c.56,1,1,1.91.77,2.41-.28.67-1.79,1.23-3.73,1.72Z"/><path class="cls-1" d="M3,137.25C.55,137.2.54,135,.54,133.87c0-6.91,0-13.82,0-20.73v-2.76c0-1.63,0-3.25,0-4.88,0-4,0-8.08,0-12.12A20.29,20.29,0,0,1,15.9,73.49c1.8-.5,3.11-.86,3.83-2.63s1.64-2.68,2.75-2.68,2,.73,3.14,2.24q1.32,1.78,2.62,3.59,1.76,2.44,3.55,4.88c1.35,1.81,2.72,3.61,4.17,5.5l1.63,2.14L40.84,82C43.59,78.19,46.2,74.57,48.9,71c1.25-1.68,2.31-2.8,3.42-2.8s2.13,1.28,3.27,3.47c2.58,5,4,7.68,3.22,9.83-.69,1.94-3,3.17-8.16,5.38-9.11,3.87-12.3,9.21-10.65,17.85a18.7,18.7,0,0,1,.08,4.67l-.06.93c0,.22,0,.44,0,.67,0,1.25,0,3.14-2.27,3.32h-.36c-2.69,0-2.7-2.56-2.71-3.93s0-2.51,0-3.76c0-3.53-.08-7.17.09-10.76.11-2.56-.65-3.84-2.9-4.89-3.11-1.44-6.16-3.14-9.1-4.78-1.08-.6-2.16-1.2-3.25-1.79-.27-.14-.57-.28-.89-.42-1-.44-2-.89-2.22-1.71-.38-1.3-1-2.86-1.9-2.86s-1.7,1-2.47,1.76a13,13,0,0,1-1,1A14.63,14.63,0,0,0,5.67,94.07c0,8.79,0,17.72,0,26.35,0,3.38,0,10.34,0,10.34,0,1.1,0,2.2,0,3.3,0,2.64-1.45,3.19-2.64,3.19ZM23.43,76.46a.6.6,0,0,0-.22,0c-.4.15-.77.94-1.07,1.58-.08.16-.15.32-.23.47-.26.52-.34,1.1.85,1.71l4.51,2.3,1,.51-.62-.88c-1.14-1.62-2-2.9-3-4.12a5.77,5.77,0,0,1-.41-.66C24,76.85,23.73,76.46,23.43,76.46ZM47,82.51c3.79-1.2,5.57-2,5.89-2.92.23-.68-.3-1.68-1.37-3.23Z"/><path class="cls-1" d="M52.32,68.66c.91,0,1.72,1.06,2.83,3.2,5,9.55,5.27,10.28-4.7,14.52-8.78,3.73-12.74,9-10.94,18.4a22.83,22.83,0,0,1,0,5.48c-.08,1.41.3,3.35-1.83,3.52h-.32c-2.06,0-2.2-1.77-2.21-3.43,0-4.83-.17-9.67.06-14.49.12-2.69-.68-4.21-3.19-5.37-4.21-2-8.23-4.34-12.32-6.56-1-.55-2.64-1-2.87-1.83-.7-2.41-1.52-3.22-2.38-3.22-1.32,0-2.72,2-3.82,2.86A15.12,15.12,0,0,0,5.17,94.08c.07,12.16,0,24.32,0,36.48,0,1.16,0,2.33,0,3.49,0,1.46-.47,2.7-2.14,2.7H3c-1.85,0-1.93-1.53-1.93-2.88,0-7.83,0-15.66,0-23.49,0-5.66-.06-11.33,0-17A19.88,19.88,0,0,1,16,74c1.89-.52,3.36-.93,4.16-2.93.67-1.65,1.45-2.36,2.29-2.36s1.81.76,2.74,2c2.07,2.82,4.09,5.67,6.17,8.48,2,2.64,4,5.25,6.21,8.18,4.08-5.63,7.82-10.92,11.7-16.11,1.29-1.73,2.19-2.6,3-2.6M45.71,83.44c8.74-2.69,9.15-3.31,5.84-7.94l-5.84,7.94m-15.85,1c-2.15-3-3.4-4.87-4.75-6.65-.49-.65-.84-1.81-1.68-1.81A1.15,1.15,0,0,0,23,76c-.71.26-1.15,1.45-1.57,2.29-.58,1.15.08,1.88,1.06,2.38,2,1,4,2,7.33,3.72M52.32,67.66c-1.32,0-2.44,1.15-3.82,3-2.71,3.62-5.31,7.24-8.08,11.08l-2.84,4L36.36,84.1c-1.45-1.9-2.82-3.7-4.17-5.51C31,77,29.81,75.33,28.65,73.74q-1.3-1.81-2.62-3.62c-1.21-1.64-2.37-2.44-3.55-2.44-1.33,0-2.41,1-3.22,3-.59,1.48-1.55,1.8-3.49,2.33A20.79,20.79,0,0,0,.05,93.37c-.06,4.07,0,8.2,0,12.19,0,1.61,0,3.21,0,4.82v2.25c0,7,0,14.16,0,21.24,0,1.14,0,3.82,2.91,3.88H3c1.16,0,3.09-.48,3.14-3.68,0-1.11,0-2.22,0-3.33v-.18c0-3.44,0-6.87,0-10.31,0-8.58,0-17.45,0-26.18a14.14,14.14,0,0,1,5.11-11.55,14.18,14.18,0,0,0,1.07-1c.63-.64,1.58-1.61,2.11-1.61.32,0,.88.66,1.42,2.5.3,1,1.42,1.54,2.5,2,.31.14.61.27.85.4,1.09.59,2.17,1.19,3.25,1.79,2.95,1.64,6,3.34,9.13,4.79,2.08,1,2.72,2,2.61,4.42-.17,3.6-.13,7.25-.09,10.78,0,1.25,0,2.51,0,3.76s0,4.43,3.21,4.43a2.75,2.75,0,0,0,.4,0c2.72-.21,2.73-2.55,2.73-3.81,0-.22,0-.43,0-.64l.06-.93a18.38,18.38,0,0,0-.09-4.8c-1.62-8.47,1.38-13.48,10.35-17.29,4.71-2,7.62-3.38,8.44-5.67S58.68,76.48,56,71.4c-1.23-2.36-2.24-3.74-3.72-3.74ZM26.73,81.72,23,79.81c-.92-.47-.78-.74-.63-1,.08-.15.15-.31.23-.47a4.16,4.16,0,0,1,.8-1.33h0a3.53,3.53,0,0,1,.47.7,6.54,6.54,0,0,0,.45.71c.77,1,1.53,2.08,2.42,3.35Zm21.61-.17,1.37-1.86,1.81-2.46c.61.92,1.06,1.77.91,2.2-.22.67-2,1.43-4.09,2.12Z"/><path class="cls-1" d="M104.72,61.35c-.6,0-1.21,0-1.82-.05a25.85,25.85,0,0,1-18.5-9.45,29.26,29.26,0,0,1-6.3-22.31c1-7.77,3.57-14.11,7.91-19.36C91.16,3.94,97.89.5,104.94.5c7.34,0,14.22,3.68,19.36,10.36A36.54,36.54,0,0,1,131.73,33a28.94,28.94,0,0,1-8.09,20.75A26.46,26.46,0,0,1,104.72,61.35Zm.16-55.51A17.54,17.54,0,0,0,93.7,10.12C86.55,16,83.08,24.05,83.38,34c.4,13,9.19,22.08,21.39,22.08h.41c12.67-.22,21.46-10.27,21.37-24.45-.61-8.46-3.81-15.42-9.5-20.67A17.91,17.91,0,0,0,104.88,5.84Z"/><path class="cls-1" d="M104.94,1c6.89,0,13.76,3.4,19,10.17A35.85,35.85,0,0,1,131.23,33c0,16.11-11.33,27.9-26.51,27.9-.59,0-1.19,0-1.79-.06-15.3-.92-26.36-15.13-24.33-31.2.89-7.08,3.21-13.55,7.79-19.1C91.63,4.16,98.3,1,104.94,1m-.17,55.58h.42c12.61-.22,22-10.33,21.86-24.95-.53-7.34-3.14-15-9.66-21a18.44,18.44,0,0,0-12.51-5.26,18,18,0,0,0-11.5,4.39C85.79,16,82.59,24.37,82.88,34c.41,13.29,9.57,22.56,21.89,22.56M104.94,0h0c-7.2,0-14.07,3.5-19.32,9.86-4.4,5.33-7,11.75-8,19.62A29.75,29.75,0,0,0,84,52.17a26.37,26.37,0,0,0,18.85,9.63c.61,0,1.24.06,1.85.06A26.94,26.94,0,0,0,124,54.06,29.39,29.39,0,0,0,132.23,33a37,37,0,0,0-7.53-22.4C119.46,3.75,112.44,0,104.94,0Zm-.17,55.58c-11.91,0-20.5-8.88-20.89-21.59C83.58,24.19,87,16.29,94,10.5a17.12,17.12,0,0,1,10.87-4.16,17.44,17.44,0,0,1,11.83,5c5.59,5.15,8.73,12,9.34,20.34.07,13.87-8.51,23.7-20.88,23.91Z"/><path class="cls-1" d="M172.57,69.36a22.23,22.23,0,0,1-16.31-7.59,25.2,25.2,0,0,1-6.41-19.4c1.32-12.83,10.15-22.56,21-23.11q.57,0,1.14,0c12.68,0,22.66,10.93,22.7,24.88,0,13.25-9.37,24.56-21,25.22Q173.14,69.36,172.57,69.36ZM155,44c.09.72.16,1.4.23,2a33.56,33.56,0,0,0,.53,3.7c1.71,7.78,8.47,13.95,15.72,14.37l.75,0c7,0,13.8-5.41,16.12-12.87a22,22,0,0,0,.4-12.5c-2.17-8.31-8.83-14.24-16.19-14.43h-.35c-7.19,0-13.82,5.48-16.13,13.34a29.16,29.16,0,0,0-.83,4.56C155.2,42.89,155.12,43.48,155,44Z"/><path class="cls-1" d="M172,19.73c12.37,0,22.16,10.62,22.2,24.38,0,13-9.11,24.07-20.52,24.72q-.56,0-1.11,0c-12.87,0-23.64-12.61-22.22-26.44,1.3-12.66,9.86-22.12,20.53-22.66l1.12,0m.26,44.94c7.11,0,14.2-5.53,16.6-13.23a22.63,22.63,0,0,0,.4-12.77c-2.22-8.48-9-14.6-16.65-14.8h-.37c-7.32,0-14.22,5.59-16.61,13.7a52.17,52.17,0,0,0-1.1,6.47c.28,2.23.38,4.07.77,5.85,1.76,8,8.76,14.33,16.18,14.76l.78,0M172,18.73h0q-.58,0-1.17,0c-11.1.57-20.13,10.48-21.47,23.56a25.71,25.71,0,0,0,6.53,19.79,22.74,22.74,0,0,0,16.68,7.75q.59,0,1.17,0c11.88-.68,21.51-12.21,21.46-25.72,0-14.23-10.24-25.38-23.2-25.38ZM155.54,44.05c.08-.54.16-1.12.23-1.72a30.36,30.36,0,0,1,.82-4.48c2.25-7.65,8.68-13,15.65-13h.34c7.14.18,13.6,6,15.72,14.05a21.65,21.65,0,0,1-.39,12.23c-2.23,7.14-8.95,12.52-15.65,12.52l-.72,0c-7-.4-13.6-6.41-15.26-14a32.88,32.88,0,0,1-.52-3.66c-.07-.62-.14-1.28-.22-2Z"/><path class="cls-1" d="M38.39,69.34h-.68C26.24,69,17,58.77,16.24,45.59A26,26,0,0,1,23,26.21a21.72,21.72,0,0,1,15.91-7l.75,0c11.85.39,21.15,11.36,21.17,25A26.2,26.2,0,0,1,53.46,63,21.16,21.16,0,0,1,38.39,69.34Zm.2-45c-7.32,0-14.21,5.85-16.38,13.91a21.85,21.85,0,0,0-.57,3.82c0,.34-.05.63-.08.83-.07,11.42,6.59,20.38,15.83,21.23.4,0,.81,0,1.22,0,7.75,0,14.91-6.6,16.64-15.35a26.5,26.5,0,0,0,.28-7.3c-.75-8.79-7.83-16.48-15.79-17.14C39.35,24.37,39,24.35,38.59,24.35Z"/><path class="cls-1" d="M38.91,19.74l.72,0C51.15,20.14,60.3,31,60.32,44.22c0,13.88-9.62,24.63-21.93,24.63l-.66,0c-11.21-.35-20.23-10.35-21-23.27C15.9,31.36,26,19.74,38.91,19.74m-.3,45c7.85,0,15.33-6.66,17.13-15.75A27.25,27.25,0,0,0,56,41.5c-.78-9.11-8.09-16.92-16.25-17.6-.4,0-.8,0-1.19,0-7.52,0-14.59,5.85-16.86,14.28a29,29,0,0,0-.66,4.71C21,54.92,28,63.77,37.34,64.63c.42,0,.85.06,1.27.06m.3-45.95h0a22.21,22.21,0,0,0-16.29,7.13,26.51,26.51,0,0,0-6.88,19.75C16.53,59.06,26,69.47,37.69,69.83l.7,0a21.72,21.72,0,0,0,15.43-6.49,26.68,26.68,0,0,0,7.5-19.14c0-13.87-9.53-25.06-21.65-25.46l-.76,0ZM22.07,42.91c0-.2,0-.47.07-.79a21.54,21.54,0,0,1,.56-3.73c2.11-7.85,8.79-13.54,15.89-13.54.37,0,.74,0,1.11,0C47.42,25.54,54.3,33,55,41.59a25.84,25.84,0,0,1-.27,7.15c-1.69,8.53-8.63,14.95-16.15,14.95-.4,0-.79,0-1.18,0-9-.82-15.41-9.54-15.36-20.73Z"/><path class="cls-1" d="M128.67,116.73a35.06,35.06,0,0,1-3.6-.26,34.47,34.47,0,0,0-3.73-.27,10.58,10.58,0,0,0-1.44.08,15.94,15.94,0,0,1-2,.13,5.13,5.13,0,0,1-4-1.37c-1-1.12-1.4-2.91-1.17-5.65A138.89,138.89,0,0,0,113,94.68L112.87,91a4,4,0,0,1,.83-3,2.84,2.84,0,0,1,2.14-.75c.22,0,.45,0,.71,0a6.34,6.34,0,0,0,.76,0l.75,0h.79c.23,0,.45,0,.67,0s.63,0,1,0a35.57,35.57,0,0,0,3.91-.3,35.4,35.4,0,0,1,3.89-.3c1.45,0,3.53.18,4.84,1.74,1.67,2,1.28,5.56.9,9a41.9,41.9,0,0,0-.32,4.33.52.52,0,0,1-.07.25c0,1.27.17,2.69.32,4.06.37,3.45.75,7-.91,9C131.91,116.57,130,116.73,128.67,116.73ZM125.13,101c-.35,0-.73,0-1.14,0s-.9.06-1.34.08c-1.68.08-3,.15-3.75,1-.59.66-.82,1.84-.71,3.61.25,4.11.88,5.39,4.33,5.39h0c.27,0,.56,0,.87,0l.23,0c2.22-.13,4.14-.24,4.87-1.27.49-.68.5-1.83,0-3.5a.52.52,0,0,1,0-.25c.45-2,.37-3.28-.25-4S126.7,101,125.13,101Zm-4.82-8.54c-1.43,0-2.12.26-2.15,1.72a1.92,1.92,0,0,0,.4,1.41,2.36,2.36,0,0,0,1.73.47h.25c1.14,0,2.29,0,3.44,0q1.5,0,3,0h0a1.74,1.74,0,0,0,1.34-.38,2.06,2.06,0,0,0,.37-1.55c0-1.2-.41-1.63-1.45-1.63-.53,0-1,0-1.43,0h-5.51Z"/><path class="cls-1" d="M128.28,87.27c1.84,0,3.44.34,4.46,1.56,2.2,2.62.46,8.56.46,13h-.07c0,4.46,1.72,10.35-.47,13-.87,1.05-2.31,1.35-4,1.35-2.25,0-4.94-.53-7.33-.53a12.4,12.4,0,0,0-1.51.08,14.65,14.65,0,0,1-1.89.13c-3.67,0-5-1.84-4.65-6.48.51-6.11.19-12.3.08-18.45,0-2.1.56-3.21,2.47-3.21.2,0,.42,0,.65,0a7.5,7.5,0,0,0,.82,0l1.54,0c.22,0,.43,0,.63,0s.66,0,1,0c2.51,0,5.37-.6,7.8-.6m-8,9.32h.26c1.14,0,2.28,0,3.43,0l3,0h.11c1.65,0,2.17-.86,2.12-2.44,0-1.37-.56-2.12-1.95-2.12h-6.94c-1.41,0-2.61.27-2.65,2.21s1.06,2.39,2.63,2.39m2.23,15c.28,0,.58,0,.9,0,4-.24,7-.32,5.58-5.43.9-4-.23-5.66-3.87-5.66-.37,0-.76,0-1.18,0-3.65.3-6.6-.34-6.26,5.2.25,4,.87,5.86,4.83,5.86m5.76-25.37h0a36.09,36.09,0,0,0-4,.3,34.88,34.88,0,0,1-3.85.3c-.33,0-.64,0-.92,0s-.47,0-.71,0h-.8l-.74,0c-.28,0-.5,0-.71,0a6.91,6.91,0,0,0-.76,0,3.4,3.4,0,0,0-2.5.9,4.6,4.6,0,0,0-1,3.33c0,1.22.06,2.45.09,3.68a138.11,138.11,0,0,1-.17,14.67c-.24,2.88.17,4.8,1.3,6a5.59,5.59,0,0,0,4.35,1.53,15.14,15.14,0,0,0,2-.14,11.66,11.66,0,0,1,1.38-.07A36.59,36.59,0,0,1,125,117a35.67,35.67,0,0,0,3.65.27c1.43,0,3.49-.18,4.76-1.72,1.79-2.17,1.4-5.84,1-9.39-.15-1.32-.29-2.68-.32-3.91a.81.81,0,0,0,.07-.35,41.38,41.38,0,0,1,.32-4.28c.39-3.56.79-7.25-1-9.39-1.45-1.72-3.68-1.92-5.23-1.92Zm-8,9.32a2,2,0,0,1-1.37-.32,1.59,1.59,0,0,1-.26-1c0-1,.23-1.23,1.65-1.23h6.94c.6,0,.92.06,1,1.15,0,.76-.12,1.06-.24,1.19a1.39,1.39,0,0,1-.89.22H127l-3,0c-1.17,0-2.33,0-3.46,0Zm2.23,15c-3.11,0-3.59-1-3.83-4.92-.1-1.61.1-2.7.59-3.25s1.83-.73,3.4-.81l1.35-.08a10.72,10.72,0,0,1,1.1,0c1.41,0,2.3.26,2.74.81s.56,1.86.16,3.63a.94.94,0,0,0,0,.5c.42,1.49.44,2.53.05,3.07-.59.84-2.49.95-4.5,1.06l-.23,0c-.3,0-.58,0-.84,0Z"/><path class="cls-1" d="M96.92,135.31h-.1c-2-.4-3.15-1.62-3.13-3.44A3.12,3.12,0,0,1,97,128.65a3.36,3.36,0,0,1,2.48,1,3.19,3.19,0,0,1,.81,2.39A3.34,3.34,0,0,1,97,135.31Z"/><path class="cls-1" d="M97,129.15h.06A2.63,2.63,0,0,1,99.79,132a2.83,2.83,0,0,1-2.87,2.79c-1.64-.32-2.75-1.23-2.73-2.95A2.63,2.63,0,0,1,97,129.15m0-1h0a3.63,3.63,0,0,0-3.81,3.7c0,2.06,1.26,3.5,3.53,3.94a.68.68,0,0,0,.2,0H97a3.81,3.81,0,0,0,3.8-3.73,3.73,3.73,0,0,0-.94-2.76,3.82,3.82,0,0,0-2.77-1.17Z"/><path class="cls-1" d="M97.51,98.35c-2.88,0-3.66-1.67-3.81-3-.21-1.88,1-3.23,3.06-3.46l.44,0a3,3,0,0,1,3.08,3,3.23,3.23,0,0,1-2.63,3.48l-.13,0Z"/><path class="cls-1" d="M97.2,92.32a2.53,2.53,0,0,1,2.58,2.57,2.76,2.76,0,0,1-2.26,3c-2.07,0-3.15-.93-3.33-2.6s1.06-2.73,2.63-2.91l.38,0m0-1-.49,0c-2.37.26-3.75,1.84-3.51,4,.14,1.29.88,3.45,4.3,3.49h0a1.26,1.26,0,0,0,.27,0,3.74,3.74,0,0,0,3-4,3.54,3.54,0,0,0-3.58-3.49Z"/><path class="cls-1" d="M96.87,116.79l-.12,0c-.81-.2-3.27-.81-3.06-3.43a3.08,3.08,0,0,1,3.24-3.08h.2a3.08,3.08,0,0,1,3.15,3.37c0,1.88-1.32,3.06-3.39,3.16Z"/><path class="cls-1" d="M96.93,110.76h.17a2.58,2.58,0,0,1,2.68,2.85c0,1.69-1.18,2.6-2.91,2.68-1.53-.38-2.83-1.09-2.68-2.9a2.59,2.59,0,0,1,2.74-2.63m0-1h0a3.57,3.57,0,0,0-3.73,3.54c-.17,2,1,3.35,3.43,4a1,1,0,0,0,.24,0h0c2.32-.11,3.8-1.51,3.86-3.65a3.6,3.6,0,0,0-3.63-3.88Z"/><path class="cls-1" d="M95.5,79.89a1.2,1.2,0,0,1-1-.67,1.91,1.91,0,0,0-.23-.28.5.5,0,0,1-.25-.36.52.52,0,0,1,.11-.42l.73-.81a.47.47,0,0,1,.37-.16.43.43,0,0,1,.19,0,1.79,1.79,0,0,1,1.11,1.22,1.18,1.18,0,0,1-.33,1.08A1.06,1.06,0,0,1,95.5,79.89Z"/><path class="cls-1" d="M95.28,77.69c.71.3,1.09,1,.61,1.49a.58.58,0,0,1-.39.21c-.39,0-.59-.71-1-.89l.73-.81m0-1a1,1,0,0,0-.75.33l-.72.8A1,1,0,0,0,94,79.35s.09.11.12.16a1.69,1.69,0,0,0,1.36.88,1.54,1.54,0,0,0,1.1-.51,1.68,1.68,0,0,0,.47-1.53,2.29,2.29,0,0,0-1.41-1.59,1,1,0,0,0-.38-.07Z"/><path class="cls-1" d="M77.3,70.42a.51.51,0,0,1-.34-.14c-.22-.21-.44-.43-.64-.66a.51.51,0,0,1-.07-.54.5.5,0,0,1,.45-.28h1.17a.53.53,0,0,1,.46.31.51.51,0,0,1-.1.54l-.57.6A.5.5,0,0,1,77.3,70.42Z"/><path class="cls-1" d="M76.7,69.3h1.17l-.57.61c-.21-.2-.41-.41-.6-.62m0-1a1,1,0,0,0-.9.57A1,1,0,0,0,75.94,70c.22.24.44.48.68.7A1,1,0,0,0,78,70.6l.56-.6a1,1,0,0,0-.71-1.68H76.7Z"/></g></g></svg>