<svg xmlns="http://www.w3.org/2000/svg" viewBox="0 0 224.97 161.28"><defs><style>.cls-1{fill:#fff;}</style></defs><title>ic_email</title><g id="Camada_2" data-name="Camada 2"><g id="Camada_1-2" data-name="Camada 1"><path class="cls-1" d="M225,18.06v125a11.08,11.08,0,0,0-1.92,2.65c-2.86,8.5-13,15.64-22.87,15.58-59-.37-117.9-.29-176.86-.08-8.86,0-18.07-6.9-20.68-14.71-.53-1.59-1.74-3-2.64-4.44v-123a27.48,27.48,0,0,0,2.15-3.59C6.11,5.92,13.17.15,23.53.12,82.91-.07,142.29,0,201.67,0c7.9,0,13.77,3.78,18.28,9.9C221.83,12.48,223.31,15.34,225,18.06Zm-16.25,8c-2.89,2-4.67,3.13-6.3,4.43-5.65,4.53-11.18,9.19-16.87,13.68C167.09,58.7,148.44,73,130.15,87.82c-11.17,9-23,9.82-34.23.89-23.47-18.6-46.79-37.39-70.2-56.07-2.57-2.05-5.3-3.9-8.72-6.4V136c0,8.58,1.21,9.81,9.7,9.81H197.59c9.14,0,11.13-1.94,11.13-11V26ZM31.5,15.78c.79,1.51,1.17,3.19,2.22,4.08,4.37,3.71,9,7.18,13.44,10.74,17.71,14.06,35.34,28.23,53.2,42.1a36.77,36.77,0,0,0,11.78,6.19c5.9,1.74,9.12-3.69,13-6.67,12.47-9.59,24.7-19.48,37-29.25,10-7.94,20.06-15.84,30-23.84.6-.48.59-1.72,1.1-3.35Z"/></g></g></svg>