<svg xmlns="http://www.w3.org/2000/svg" viewBox="0 0 137.06 229.04"><defs><style>.cls-1{fill:#fff;stroke:#fff;stroke-miterlimit:10;stroke-width:4px;}</style></defs><title>ic_facebook</title><g id="Camada_2" data-name="Camada 2"><g id="Camada_1-2" data-name="Camada 1"><path class="cls-1" d="M90,2.06c14.08,0,28.16.07,42.24-.06,2.27,0,2.87.36,2.83,2.77-.17,11.43-.08,22.86-.08,34.29-1.74,2.95-4.28,4.16-7.75,4-5.65-.18-11.32-.14-17,0-11,.23-18.14,7.5-18.15,18.46,0,3.16.22,6.34-.06,9.48-.31,3.45,1.15,4.15,4.28,4.09,9.83-.18,19.66-.08,29.48-.06,5.46,0,7.16,1.66,7.18,7q0,12,0,24c0,6.15-1.84,8-8,8-9.16,0-18.33.24-27.48-.09-4.3-.16-5.59.87-5.55,5.41.22,31.81.1,63.62.13,95.43,0,4.38.38,8.79-3.12,12.25H46c-3.43-3.46-3.13-7.83-3.13-12.21,0-31.75-.08-63.5.15-95.25,0-4.74-1.41-5.79-5.82-5.63-8.8.33-17.62.09-26.43.1-3.54,0-6.84-.48-8.76-4v-32c2.26-2.53,5-3.19,8.41-3.09,8.15.26,16.32-.08,24.47.16,3.71.11,5.39-.62,5.1-4.82a82.21,82.21,0,0,1,2-23.13C47,23.91,59.1,10.54,82.63,4.25,85.11,3.58,87.93,4.15,90,2.06ZM83,162c0-16.82.09-33.65-.06-50.48,0-4.69,1.76-6.67,6.48-6.52,6,.2,12,.1,18,0,5.3-.05,12.56,1.82,15.41-.89,3.53-3.36.7-10.68,1.22-16.25.29-3.15-.88-3.94-3.92-3.88-10,.18-20,.08-30,.06-6.56,0-7.07-.53-7.12-7.24,0-5.49-.08-11,0-16.49.33-12.63,8.19-22,20.37-25.25,6.27-1.64,12.55-.76,18.82-.94,2.62-.07,4-.48,3.81-3.53-.24-5-.23-10,0-15,.13-2.91-.92-3.64-3.69-3.6-9.83.14-19.67-.24-29.49.11-20.93.76-35.53,12.05-40.94,32.14-2.87,10.64-3.2,21.54-3.07,32.48.07,5.87-1.38,7.25-7.31,7.3-5,0-10,0-15,0s-11.62-1.69-14.47.83c-3.27,2.89-.54,9.71-1.13,14.78-.46,4,1.22,4.66,4.78,4.58,9.33-.24,18.66-.1,28-.08,6.51,0,8.16,1.7,8.16,8.19,0,33.33.05,66.65-.08,100,0,3.59.68,5,4.6,4.8,7.48-.34,15-.26,22.49,0,3.24.1,4.22-.84,4.18-4.14C82.9,196,83,179,83,162Z"/></g></g></svg>