<svg xmlns="http://www.w3.org/2000/svg" viewBox="0 0 153.23 117.46"><defs><style>.cls-1{fill:#fff;stroke:#fff;stroke-miterlimit:10;stroke-width:4px;}</style></defs><title>ic_fale_conosco</title><g id="Camada_2" data-name="Camada 2"><g id="Camada_1-2" data-name="Camada 1"><path class="cls-1" d="M56.17,69.6a18.14,18.14,0,0,0-7.3,4.19C47,75.48,45.26,77.25,43.48,79L33.14,89.26c-1.82,1.8-3.84,2.28-6,1.33a4.87,4.87,0,0,1-3-5c.06-3.65,0-7.31,0-11,0-4.11-2.29-6.38-6.4-6.39-2.61,0-5.22,0-7.83,0A7.55,7.55,0,0,1,2,60.53Q2,35.1,2,9.67A7.38,7.38,0,0,1,9.8,2.06c26.5,0,53,0,79.5-.06A7.74,7.74,0,0,1,97,9.79c-.21,4.69-.05,9.39-.05,14.08,0,2.52,0,2.52,2.6,2.52q21.52,0,43,0a12.34,12.34,0,0,1,3.54.4,7,7,0,0,1,5,6.51c.1,1.93.07,3.86.07,5.79,0,14.92,0,29.84,0,44.76a11.91,11.91,0,0,1-1.1,5.08c-1.29,2.6-3.79,3.63-6.62,3.69s-5.53,0-8.3,0c-3.67,0-5.95,2.31-6,6s0,7.61,0,11.42a4.92,4.92,0,0,1-3,4.89,4.84,4.84,0,0,1-5.75-1c-2.79-2.66-5.5-5.42-8.25-8.12-2.53-2.49-5-5-7.62-7.43A21,21,0,0,0,90,92.65H64.79c-5.48,0-8.6-3.13-8.62-8.65,0-4.18,0-8.35,0-12.52ZM49.6,4.19H11.1a14.42,14.42,0,0,0-2.18.12,5.2,5.2,0,0,0-4.6,5.27q0,25.52,0,51a5.27,5.27,0,0,0,5.37,5.34c2.71,0,5.43,0,8.14,0,4.57,0,8.67,2.8,8.52,8.45-.1,3.71,0,7.41,0,11.11a3,3,0,0,0,1.93,3.11,2.87,2.87,0,0,0,3.22-1c3.86-3.81,7.73-7.6,11.59-11.42,3.45-3.42,6.82-6.95,11.58-8.56a2,2,0,0,0,1.54-2.24q-.08-15.1,0-30.21a12.78,12.78,0,0,1,.49-3.69c1-3.31,3.76-5.1,7.71-5.11q14.33,0,28.64,0c1.3,0,1.87-.33,1.85-1.75-.06-4.85,0-9.7,0-14.56,0-2.51-1-4.51-3.39-5.45a9.13,9.13,0,0,0-3.22-.44Q68.93,4.16,49.6,4.19Zm99.49,55.28q0-12.28,0-24.57c0-4.16-2.21-6.37-6.36-6.37q-21.83,0-43.66,0c-2.06,0-2.06,0-2.07,2.08,0,9.86-.13,19.72.06,29.57a7.83,7.83,0,0,1-8.15,8.08c-8.61-.11-17.21,0-25.82,0-1,0-2.07.23-3.1.25-1.23,0-1.55.63-1.54,1.79.05,4.69,0,9.39,0,14.08,0,3.84,2.19,6,6,6q12.52,0,25,0a24.28,24.28,0,0,1,17.7,7.31q7.23,7.14,14.49,14.27c1,1,2,1.65,3.47,1s1.73-1.78,1.72-3.2c-.05-3.7,0-7.41,0-11.11,0-4.17,2.23-7.25,6.31-7.91a59.65,59.65,0,0,1,9.18-.32c4.69,0,6.68-2,6.69-6.65Zm-90.63,6.8C60.37,66.15,62,66,63.68,66c8.39,0,16.78,0,25.18,0,3.85,0,6-2.1,6-6,0-9.8,0-19.6,0-29.4,0-1.55-.43-2.06-2-2.05-9.33.07-18.66,0-28,0-4.23,0-6.38,2.13-6.39,6.32V66.27Z"/></g></g></svg>