<svg xmlns="http://www.w3.org/2000/svg" viewBox="0 0 147.59 147.13"><defs><style>.cls-1{fill:#fff;}</style></defs><title>ic_home</title><g id="Camada_2" data-name="Camada 2"><g id="Camada_1-2" data-name="Camada 1"><path class="cls-1" d="M36.7,138.19h73.94c.09-1.8.25-3.54.25-5.29q0-28,0-55.95c0-1.5-.36-3.27.31-4.41.81-1.39,2.58-3.17,3.85-3.1,1.57.08,3.34,1.65,4.45,3,.68.84.32,2.56.32,3.89q0,31.71,0,63.44c0,6.36-.9,7.29-7.2,7.3q-39,0-77.93,0c-6,0-7-1-7-7q0-32.22,0-64.44c0-5,2.72-7.86,5.85-6,1.64,1,2.93,3.94,3,6,.22,18.81.13,37.63.13,56.44Z"/><path class="cls-1" d="M73.91,10.09C58.35,25.75,43.46,40.75,28.55,55.74c-6.46,6.49-13,12.92-19.43,19.44C6.8,77.54,4.2,79.3,1.41,76.51s-.84-5.36,1.45-7.64Q36.13,35.69,69.32,2.43C72.43-.69,75-.89,78.17,2.32Q111.48,35.78,145,69.11c2.21,2.19,3.9,4.64,1.34,7.3-2.73,2.83-5.34,1.27-7.72-1.11q-30.2-30.24-60.44-60.43C76.86,13.58,75.72,12.14,73.91,10.09Z"/></g></g></svg>