<svg xmlns="http://www.w3.org/2000/svg" viewBox="0 0 200.98 200.98"><defs><style>.cls-1{fill:#fff;}</style></defs><title>ic_instagram</title><g id="Camada_2" data-name="Camada 2"><g id="Camada_1-2" data-name="Camada 1"><path class="cls-1" d="M54.5,199.48l-.4-.3a5.82,5.82,0,0,1-.48-.41l-.12-.11c-23.29-2.08-44.86-21.34-50.26-44.91a18,18,0,0,1-.33-3.3c-.06-1.77-.11-3.3-1.09-4.54l-.32-.41v-90l.29-.4a4.45,4.45,0,0,1,.41-.47l.13-.14C5.11,31.77,17.64,15.41,39.56,5.84A50.4,50.4,0,0,1,49.45,3c2-.42,4.12-.87,6.11-1.47l.21-.06h89.59l.33.18a7.18,7.18,0,0,1,.63.39,4,4,0,0,0,.48.28c19.58,2.09,34.93,12.45,45.57,30.78,3.24,5.58,4.71,11.73,6.13,17.68.3,1.27.61,2.55.93,3.82l0,.18v92.55l-.18.33c-.11.21-.25.41-.38.62a3.68,3.68,0,0,0-.31.53c-2.5,16.21-10.7,29.55-24.37,39.62-7.79,5.75-16.42,8.27-26.88,11l-.19,0Zm53.78-188c-11.3,0-22.78.07-33.89.14l-12.83.08A54.79,54.79,0,0,0,49.2,13.21C26.14,18.76,12.13,36.68,11.71,61.15c-.38,22.25-.24,44.88-.1,66.77l.07,12.14A59.5,59.5,0,0,0,13.27,152C18,174,37.68,189.42,61.2,189.42h.43c8.76-.07,18.23-.11,29.8-.11q10.48,0,21,0l21,0h5.21a87.08,87.08,0,0,0,9.67-.72c23.36-2.72,41.43-23.87,41.14-48.15-.11-9.08-.08-18.3-.06-27.22q0-6.13,0-12.27c0-3.78,0-7.56,0-11.34,0-9.88,0-20.09,0-30.14A41.82,41.82,0,0,0,188,48.66c-5.92-22.72-23.68-36.53-47.51-36.95C130.8,11.54,120.28,11.46,108.28,11.46Z"/><path class="cls-1" d="M145,3a5.24,5.24,0,0,0,1.62.84c20.14,2.15,34.49,12.85,44.47,30,3.8,6.55,5.08,13.92,6.91,21.11v92a5.87,5.87,0,0,0-.85,1.62c-2.5,16.23-10.63,29-23.78,38.66-7.89,5.82-17.1,8.33-26.37,10.72H55c-.37-.28-.72-.76-1.12-.8-23.37-2-44-21.39-49.17-43.76C4.06,150.61,5,147.48,3,145V56c.27-.37.75-.72.79-1.12,2.76-23,15.38-38.5,36.37-47.65C45.25,5,50.76,4.58,56,3h89M61.2,190.92h.44q14.91-.12,29.83-.11c13.93,0,27.86.05,41.78.05h5.34a88.37,88.37,0,0,0,9.85-.73c24.07-2.81,42.76-24.65,42.46-49.66-.16-13.16,0-26.31,0-39.47,0-13.82-.07-27.65,0-41.47a43,43,0,0,0-1.48-11.25c-6.16-23.63-24.77-37.65-48.94-38.07C129.77,10,119,10,108.31,10c-15.59,0-31.17.13-46.76.22a56.19,56.19,0,0,0-12.71,1.57c-24.73,6-38.22,25.31-38.63,49.38-.45,26.3-.17,52.62,0,78.94a60.74,60.74,0,0,0,1.62,12.19c5,23.47,25.66,38.66,49.4,38.66M145.74,0H55.55l-.42.13c-1.93.58-3.9,1-6,1.43A52,52,0,0,0,39,4.47C16.67,14.19,3.87,30.79.9,53.82c-.1.12-.21.25-.32.4L0,55v91l.64.82c.64.81.71,1.92.77,3.66a18.79,18.79,0,0,0,.37,3.59c5.49,24,27.37,43.64,51.08,46l.35.29.8.59h93.35l.37-.1c10.63-2.74,19.39-5.3,27.4-11.21,13.93-10.27,22.31-23.85,24.93-40.36l.12-.18a8.21,8.21,0,0,0,.44-.73l.36-.66V54.62l-.1-.36c-.32-1.27-.62-2.54-.92-3.81-1.45-6.05-3-12.31-6.29-18.08C182.83,13.72,167.22,3.13,147.26.89l-.11-.08a8.7,8.7,0,0,0-.75-.45L145.74,0ZM61.2,187.92c-22.81,0-41.92-14.92-46.47-36.29a58.25,58.25,0,0,1-1.55-11.58q0-6.11-.07-12.2c-.14-21.86-.28-44.47.1-66.67.4-23.74,14-41.13,36.34-46.51a52.94,52.94,0,0,1,12-1.49l12.88-.08C85.55,13,97,13,108.31,13c12,0,22.48.08,32.13.25,23.12.4,40.35,13.8,46.09,35.83a40.53,40.53,0,0,1,1.38,10.46c-.08,10-.06,20.26,0,30.13,0,3.79,0,7.58,0,11.37q0,6.15,0,12.29c0,8.92-.05,18.14.06,27.22.28,23.52-17.2,44-39.81,46.64a87.36,87.36,0,0,1-9.51.71h-5.33l-20.88,0q-10.45,0-20.9,0c-11.6,0-21.08,0-29.85.11Z"/><path class="cls-1" d="M100.23,150.48C71.56,149,50.81,127.81,50.89,100.05a49.06,49.06,0,0,1,14-34.47c9.23-9.42,22-14.63,36-14.69h.2c27.47,0,49.09,21.82,49.22,49.67.13,27.22-21.78,49.15-49.88,49.92h-.12Zm.13-89.36A40,40,0,0,0,70.8,74.34c-6.93,7.63-10.24,17-9.31,26.5v.26a35.09,35.09,0,0,0,9.69,26.57A39.54,39.54,0,0,0,100,140.26h.21c22.87-.12,39.69-16.54,40-39,.31-22-16.18-39.21-38.35-40.08Z"/><path class="cls-1" d="M101,52.39c25.89,0,47.6,20.37,47.73,48.18.13,26.79-21.67,47.67-48.42,48.41-26.84-1.37-48-21.22-47.92-48.92.08-25.7,19.88-47.55,48.42-47.67H101m-1,89.37h.22c23.68-.13,41.17-17.16,41.5-40.51C142.08,77.5,123.6,60.5,102,59.65l-1.59,0C77.3,59.62,57.89,79.41,60,101c-1.57,22,17.47,40.77,40,40.77m1-92.37h-.21c-14.35.06-27.49,5.43-37,15.14a51.75,51.75,0,0,0,.36,72,54.67,54.67,0,0,0,36,15.46h.23c28.92-.8,51.47-23.39,51.34-51.43-.14-28.68-22.42-51.16-50.72-51.16Zm-1,89.37a38,38,0,0,1-27.74-12.11A33.55,33.55,0,0,1,63,101.2V101l0-.25c-.88-9,2.29-18,8.93-25.36a38.58,38.58,0,0,1,28.45-12.72l1.47,0c21.34.83,37.21,17.41,36.91,38.56-.3,21.64-16.5,37.43-38.51,37.55Z"/><path class="cls-1" d="M154,56.57c-4.08,0-9.32-4.89-9.51-8.86a10,10,0,0,1,2.94-7,9.36,9.36,0,0,1,6.42-3.23c4.39,0,9.6,5.07,9.69,9.35s-5.1,9.59-9.4,9.71Z"/><path class="cls-1" d="M154,39c3.51,0,8,4.38,8.11,7.88s-4.47,8.08-7.94,8.18H154c-3.23,0-7.86-4.27-8-7.43-.19-3.92,4.07-8.58,7.89-8.63H154m0-3h-.11a10.82,10.82,0,0,0-7.48,3.7A11.35,11.35,0,0,0,143,47.78c.23,4.71,6.19,10.29,11,10.29h.19c5.07-.15,10.95-6.24,10.85-11.24C165,41.67,159.15,36,154,36Z"/></g></g></svg>