<svg xmlns="http://www.w3.org/2000/svg" viewBox="0 0 152.16 225"><defs><style>.cls-1{fill:#fff;}</style></defs><title>ic_location</title><g id="Camada_2" data-name="Camada 2"><g id="Camada_1-2" data-name="Camada 1"><path class="cls-1" d="M74.82,225c-1.31-1.22-2.93-2.24-3.89-3.69C47.48,185.93,24.82,150.09,8.51,110.7c-5.82-14.06-10-28.42-8-44.1C4.93,33,31.44,5.75,65,.94A38.89,38.89,0,0,0,68.82,0h15c7.78,2.25,15.89,3.7,23.27,6.88,30.24,13,48.85,44.36,44.42,76.92-1.65,12.12-6.3,24.14-11.31,35.44-15.89,35.85-36.66,69-58.37,101.54a33.18,33.18,0,0,1-4,4.22Zm1-15.12c8.61-13.83,16.44-26,23.85-38.39,13.91-23.28,27.14-46.9,36.52-72.47,3.73-10.15,5.87-20.5,4.32-31.32A65.17,65.17,0,0,0,68.21,11.88c-39.4,4.85-65,44.77-54.59,79,5.74,18.92,14.06,36.64,23.74,53.71C49.57,166.08,62.45,187.23,75.84,209.88Z"/><path class="cls-1" d="M76.73,33.66c23.34.27,42.18,19.53,41.74,42.67A42.27,42.27,0,0,1,75.2,118C52.55,117.74,33.4,98,33.84,75.29A42.4,42.4,0,0,1,76.73,33.66Zm30.29,42a30.87,30.87,0,0,0-61.73.1c-.13,16.75,14,31,30.73,31.09A31,31,0,0,0,107,75.63Z"/></g></g></svg>