<svg xmlns="http://www.w3.org/2000/svg" viewBox="0 0 203 203"><defs><style>.cls-1{fill:none;stroke:#fff;stroke-miterlimit:10;stroke-width:9px;}.cls-2{fill:#fff;}</style></defs><title>ic_sobre</title><g id="Camada_2" data-name="Camada 2"><g id="Camada_1-2" data-name="Camada 1"><circle class="cls-1" cx="101.5" cy="101.5" r="97"/><path class="cls-2" d="M94.8,78.61c2.45,0,11.11,4.91,11.11,7.36a15.06,15.06,0,0,1-.65,3.76c-2,7.36-12.59,44.31-12.59,50.36,0,3.11,2.29,5.56,4.09,5.56,4.9,0,13.57-12.92,21.58-27.64,0,0,1.47-2.94,3.6-2.94s4.09,1.47,4.09,3.43-2.13,5.73-2.13,5.73c-9,16.35-17,31.23-28.78,31.23-5.56,0-18.15-6.05-18.15-11.94C77,133.06,88.58,92.18,91.2,82,91.85,79.59,93.32,78.61,94.8,78.61Zm1.79-16.68c0-6.21,3.28-14.39,8.67-14.39,4.09,0,9.16,2.78,9.16,6.87,0,6.21-3.44,14.39-8.67,14.39C101.66,68.8,96.59,66,96.59,61.93Z"/></g></g></svg>