<svg xmlns="http://www.w3.org/2000/svg" viewBox="0 0 155.18 154.98"><defs><style>.cls-1{fill:#fff;}</style></defs><title>ic_wpp</title><g id="Camada_2" data-name="Camada 2"><g id="Camada_1-2" data-name="Camada 1"><path class="cls-1" d="M155.18,83.22c-.87,3.75-1.61,7.54-2.61,11.25A75.19,75.19,0,0,1,133.8,128C122.58,139.41,109,147.35,93,150.2a76.78,76.78,0,0,1-48.53-6.66,10.43,10.43,0,0,0-6.92-.29C25.24,146.91,13,150.89,0,155c3.23-9.4,5.84-18.63,9.57-27.37,3.37-7.91,2.77-14.55-.73-22.53C-3.3,77.34.86,51.41,20,27.87,37.5,6.23,60.72-2,87.75.41c14.75,1.31,27.88,7.52,39.46,17.12C139.78,28,147.86,41,152.32,56.56c1.1,3.84,1.91,7.77,2.86,11.67ZM16.76,137.43l1.2,1c7.17-2.13,14.33-4.31,21.52-6.35,1.48-.42,3.52-1,4.61-.36a66,66,0,0,0,46.48,8.39c17.78-3.12,32.19-12,42.44-26.88,8.54-12.4,12.09-26.32,11.27-41.54-.83-15.61-6.3-29.27-16.83-40.43C111.2,14.07,91,7.52,67.46,11.21,45,14.75,28.51,27.1,19.08,47.27s-9,41.16,2.34,60.94c2.68,4.67,3,8.43.91,13.24C20,126.58,18.58,132.08,16.76,137.43Z"/><path class="cls-1" d="M41.92,60.18c.37-8.81,2.75-14.69,9.56-18.09,3.61-1.8,6.35-1.2,8,2.71,1.92,4.51,4,9,5.67,13.56a5.32,5.32,0,0,1-.9,4.25c-5.75,7.54-6,9.3.11,16.08,5.4,6,11.06,11.76,18.79,15,5.61,2.37,8.55,2.13,11.7-3.12,2.71-4.51,5.53-5.59,10-2.58,2.15,1.45,4.71,2.28,7.06,3.45,5.57,2.77,6.74,7,2.62,11.81-4.93,5.78-11.14,8.91-19.1,7-24.22-5.74-40.58-21-51.43-42.74C42.66,64.87,42.32,61.67,41.92,60.18Z"/></g></g></svg>