<?xml version="1.0" standalone="no"?>
<!DOCTYPE svg PUBLIC "-//W3C//DTD SVG 20010904//EN"
 "http://www.w3.org/TR/2001/REC-SVG-20010904/DTD/svg10.dtd">
<svg version="1.0" xmlns="http://www.w3.org/2000/svg"
 width="539.000000pt" height="539.000000pt" viewBox="0 0 539.000000 539.000000"
 preserveAspectRatio="xMidYMid meet">
<metadata>
Created by potrace 1.11, written by Peter Selinger 2001-2013
</metadata>
<g transform="translate(0.000000,539.000000) scale(0.100000,-0.100000)"
fill="#000000" stroke="none">
<path d="M1675 5379 c-382 -63 -716 -275 -922 -584 -89 -133 -164 -307 -192
-445 -6 -30 -14 -66 -17 -80 -10 -43 -13 -312 -4 -370 4 -30 11 -75 14 -100
22 -148 111 -366 208 -507 68 -99 231 -264 328 -332 163 -114 391 -207 555
-226 28 -3 59 -8 69 -12 31 -9 266 -5 336 6 36 6 83 13 105 17 22 3 44 8 48
11 4 3 13 0 20 -5 24 -21 862 -36 1027 -19 172 17 284 43 414 94 105 42 152
67 261 138 450 297 684 888 533 1350 -52 161 -127 270 -261 379 -83 68 -239
144 -327 160 -19 3 -46 9 -60 12 -36 8 -181 11 -209 4 -21 -5 -18 -9 35 -45
85 -58 222 -198 283 -289 158 -234 196 -481 115 -746 -101 -333 -381 -557
-769 -616 -49 -7 -591 -15 -608 -8 -9 3 -12 251 -12 1067 0 584 -3 1075 -7
1091 -4 16 -13 33 -20 38 -7 4 -98 8 -201 8 -147 0 -189 -3 -193 -13 -4 -11
-14 -11 -57 -1 -29 8 -79 18 -112 23 -74 11 -312 11 -380 0z m311 -524 c27 -4
90 -20 140 -36 l91 -29 0 -734 0 -735 -52 -21 c-105 -43 -193 -58 -310 -55
-213 6 -408 88 -546 231 -77 80 -79 82 -79 89 0 4 -13 26 -29 49 -17 24 -44
74 -61 112 -153 332 -51 729 249 968 174 139 377 194 597 161z"/>
<path d="M3515 5382 c-2 -2 -173 -6 -381 -8 -245 -3 -383 -9 -391 -16 -10 -8
-13 -218 -13 -1053 0 -926 2 -1044 15 -1055 23 -19 352 -15 384 5 7 3 11 278
11 758 2 862 3 923 14 934 10 10 570 10 652 0 82 -10 159 -31 230 -62 242
-107 451 -350 520 -605 19 -71 26 -351 11 -445 -21 -132 -72 -287 -136 -414
-131 -258 -413 -534 -653 -637 -106 -46 32 -52 209 -9 534 128 924 557 1001
1100 11 81 7 324 -7 400 -24 126 -70 261 -128 379 -181 362 -543 632 -943 702
-96 17 -385 36 -395 26z"/>
<path d="M602 2482 c-179 -30 -343 -156 -419 -320 -38 -82 -53 -149 -53 -242
0 -170 53 -302 165 -416 304 -310 834 -180 966 236 87 273 -52 580 -316 700
-114 52 -214 64 -343 42z m225 -172 c78 -25 167 -91 220 -162 112 -154 98
-371 -34 -518 -183 -204 -513 -170 -664 68 -25 40 -39 75 -56 142 -11 44 -4
149 14 196 54 139 198 262 340 292 42 9 121 1 180 -18z"/>
<path d="M1462 2489 c-23 -3 -46 -10 -51 -15 -23 -24 -27 -113 -26 -580 0
-460 2 -503 18 -527 10 -15 23 -27 30 -28 6 0 20 -2 31 -4 27 -5 62 14 75 42
7 14 11 90 11 192 0 200 0 200 102 203 84 2 120 -18 161 -92 49 -88 175 -282
203 -312 32 -35 57 -42 91 -26 37 18 53 52 42 90 -4 16 -56 106 -114 199 -119
190 -117 179 -40 250 25 23 57 67 72 98 25 49 28 67 27 146 -1 186 -92 308
-264 355 -47 13 -293 19 -368 9z m317 -164 c76 -14 144 -89 157 -172 14 -95
-59 -192 -160 -212 -122 -24 -186 -18 -206 20 -6 10 -13 88 -16 173 l-6 154
24 25 c23 23 31 24 99 21 41 -1 89 -6 108 -9z"/>
<path d="M2263 2492 c-63 -6 -94 -84 -54 -133 18 -23 25 -24 170 -27 133 -3
152 -6 161 -21 5 -11 9 -201 8 -468 0 -403 1 -453 16 -475 32 -49 117 -43 137
9 7 19 11 181 11 478 0 296 3 454 10 462 7 9 51 13 155 13 139 0 145 1 168 25
17 16 25 35 25 58 0 36 -30 77 -58 78 -63 2 -723 3 -749 1z"/>
<path d="M3212 2480 c-17 -10 -33 -29 -37 -41 -4 -13 -8 -252 -7 -532 0 -542
0 -544 49 -566 34 -16 57 -14 80 7 31 27 35 50 35 255 0 106 4 199 9 208 7 14
38 16 243 15 129 -1 238 -4 241 -8 4 -4 7 -98 7 -210 0 -118 4 -214 10 -230
17 -46 85 -58 124 -21 l24 22 0 526 c0 525 -2 556 -34 577 -21 14 -74 8 -97
-11 -24 -19 -24 -21 -26 -236 -1 -120 -4 -223 -7 -231 -7 -18 -469 -19 -484
-1 -6 7 -10 101 -10 221 -1 189 -3 212 -20 235 -26 35 -63 43 -100 21z"/>
<path d="M4630 2493 c-152 -17 -267 -70 -366 -168 -121 -120 -175 -262 -169
-440 9 -245 163 -450 397 -526 100 -33 261 -33 358 0 337 116 493 483 341 806
-53 112 -161 221 -272 272 -83 39 -214 64 -289 56z m206 -203 c231 -113 317
-357 202 -573 -141 -264 -516 -297 -697 -60 -179 233 -71 558 219 660 20 7 72
11 121 10 75 -3 96 -8 155 -37z"/>
<path d="M223 1151 c-47 -21 -47 -25 -48 -561 -1 -278 3 -517 8 -533 14 -43
40 -51 172 -50 276 0 410 41 534 161 257 249 224 683 -67 884 -99 69 -218 98
-422 104 -86 2 -165 0 -177 -5z m353 -167 c165 -38 288 -162 318 -321 22 -114
3 -209 -62 -308 -85 -131 -211 -195 -386 -195 -108 0 -101 -30 -104 407 -2
208 0 388 3 400 3 12 15 23 28 26 43 8 152 3 203 -9z"/>
<path d="M1183 1133 c-15 -14 -23 -34 -23 -55 -4 -366 -4 -875 0 -946 4 -67
10 -97 23 -109 15 -15 54 -17 374 -18 383 -2 404 0 417 47 11 42 6 64 -19 88
l-26 24 -302 1 -302 1 -6 49 c-13 97 -5 229 14 258 l18 27 198 -2 c218 -2 240
3 262 59 12 31 -3 77 -29 90 -10 4 -116 10 -237 13 l-220 5 -3 163 -2 162 32
1 c18 0 152 1 298 3 189 1 271 5 287 14 45 25 56 83 24 123 l-19 24 -369 0
c-367 0 -368 0 -390 -22z"/>
<path d="M2359 1150 c-51 -9 -122 -53 -158 -97 -68 -82 -90 -216 -52 -305 39
-92 91 -132 251 -193 135 -51 180 -101 180 -197 -1 -92 -60 -165 -153 -189
-69 -17 -115 -1 -188 67 -77 70 -123 72 -158 6 -18 -34 1 -80 57 -134 93 -91
195 -119 329 -92 114 23 226 117 259 218 34 101 22 227 -29 301 -54 79 -154
147 -269 181 -32 10 -73 30 -93 46 -87 72 -39 210 80 232 38 7 86 -15 135 -63
51 -49 88 -54 125 -16 43 42 25 109 -47 169 -76 64 -165 86 -269 66z"/>
<path d="M2933 1148 c-12 -6 -27 -24 -32 -41 -14 -39 -15 -1025 -1 -1061 18
-48 108 -53 138 -8 15 23 16 76 16 531 0 278 -3 518 -7 533 -4 16 -20 34 -37
43 -33 17 -46 18 -77 3z"/>
<path d="M3622 1140 c-256 -67 -433 -291 -434 -550 -2 -264 154 -480 407 -565
59 -20 202 -27 271 -13 27 5 59 11 72 14 46 9 128 52 155 82 47 49 55 90 56
277 1 192 -3 203 -66 214 -21 4 -98 7 -170 6 -152 -2 -179 -10 -189 -61 -14
-74 22 -100 143 -103 100 -3 120 -12 128 -55 11 -59 0 -148 -21 -164 -65 -49
-196 -73 -288 -51 -202 47 -338 212 -338 409 0 332 368 527 652 346 76 -49
118 -48 146 5 19 38 10 72 -32 109 -114 99 -327 143 -492 100z"/>
<path d="M4298 1145 c-18 -10 -29 -26 -33 -48 -3 -17 -4 -261 -2 -540 l2 -509
27 -23 c27 -23 42 -24 89 -10 39 13 41 34 40 427 -1 240 2 378 8 378 5 0 58
-62 118 -137 59 -76 114 -145 120 -153 7 -8 92 -116 189 -240 203 -260 211
-269 242 -281 30 -12 91 13 94 38 1 10 2 248 3 528 2 402 0 517 -11 543 -7 17
-17 32 -21 33 -4 0 -17 2 -28 5 -27 5 -72 -14 -81 -34 -4 -10 -9 -188 -10
-397 -3 -440 -2 -398 -13 -393 -6 2 -150 183 -321 403 -171 220 -321 405 -333
412 -29 16 -46 15 -79 -2z"/>
</g>
</svg>
